<?xml version="1.0" encoding="UTF-8"?>
<svg version="1.1" xmlns="http://www.w3.org/2000/svg" width="200" height="230">
<path d="M0 0 C66 0 132 0 200 0 C200 75.9 200 151.8 200 230 C134 230 68 230 0 230 C0 154.1 0 78.2 0 0 Z " fill="none" transform="translate(0,0)"/>
<path d="M0 0 C3 0.125 3 0.125 4 1.125 C4.08685603 2.68672745 4.10702219 4.25229344 4.09765625 5.81640625 C4.09282227 7.23276367 4.09282227 7.23276367 4.08789062 8.67773438 C4.07532227 10.16756836 4.07532227 10.16756836 4.0625 11.6875 C4.05798828 12.68458984 4.05347656 13.68167969 4.04882812 14.70898438 C4.03700007 17.18104849 4.02051849 19.65299518 4 22.125 C4.48879639 21.78654053 4.97759277 21.44808105 5.48120117 21.09936523 C7.70633602 19.57141296 9.94641097 18.06694325 12.1875 16.5625 C12.95642578 16.02947266 13.72535156 15.49644531 14.51757812 14.94726562 C15.26845703 14.44775391 16.01933594 13.94824219 16.79296875 13.43359375 C17.82200317 12.73447876 17.82200317 12.73447876 18.87182617 12.02124023 C21.62787291 10.86058318 23.18379182 11.25941738 26 12.125 C27 13.125 27 13.125 27.328125 15.48046875 C27 18.125 27 18.125 25.234375 19.86328125 C24.41453125 20.38277344 23.5946875 20.90226562 22.75 21.4375 C21.40035156 22.33662109 21.40035156 22.33662109 20.0234375 23.25390625 C17.93645147 24.54546479 15.81318445 25.77955518 13.6640625 26.96484375 C10.43857458 28.83807842 7.67160182 30.51636522 5 33.125 C4.0094197 36.98519953 4.22854873 40.23917138 5 44.125 C6.77837471 42.97314713 8.55672387 41.82125481 10.33496094 40.66918945 C11.8710757 39.67530027 13.40819872 38.6829678 14.94628906 37.69213867 C18.67536888 35.28831051 22.39218533 32.87185789 26.0703125 30.390625 C26.69341309 29.97546631 27.31651367 29.56030762 27.95849609 29.13256836 C29.65943941 27.99791075 31.35336746 26.85275733 33.046875 25.70703125 C36.08779336 24.07796784 37.6207422 23.57557522 41 24.125 C41.99 25.115 41.99 25.115 43 26.125 C42.85848847 29.26231368 42.47605636 30.67631196 40.16967773 32.85009766 C39.36989502 33.36620605 38.5701123 33.88231445 37.74609375 34.4140625 C36.84101074 35.00864258 35.93592773 35.60322266 35.00341797 36.21582031 C34.01229004 36.84584961 33.02116211 37.47587891 32 38.125 C30.97148926 38.79885742 29.94297852 39.47271484 28.88330078 40.16699219 C25.62227776 42.29819251 22.34489694 44.40189342 19.0625 46.5 C17.9289658 47.23035909 16.79550191 47.96082733 15.66210938 48.69140625 C14.58896484 49.37847656 13.51582031 50.06554688 12.41015625 50.7734375 C10.95814819 51.70422119 10.95814819 51.70422119 9.47680664 52.65380859 C7 54.125 7 54.125 4 55.125 C4 60.405 4 65.685 4 71.125 C5.24136719 70.39152344 6.48273438 69.65804687 7.76171875 68.90234375 C9.40320792 67.95497 11.04515942 67.008397 12.6875 66.0625 C13.50412109 65.57716797 14.32074219 65.09183594 15.16210938 64.59179688 C16.35610352 63.91020508 16.35610352 63.91020508 17.57421875 63.21484375 C18.30213623 62.79066162 19.03005371 62.36647949 19.7800293 61.92944336 C22.57145829 60.91792257 24.19231428 61.27366819 27 62.125 C28 63.125 28 63.125 28.11352539 65.34985352 C28.10567017 66.78735962 28.10567017 66.78735962 28.09765625 68.25390625 C28.09282227 69.80561523 28.09282227 69.80561523 28.08789062 71.38867188 C28.07532227 73.0215918 28.07532227 73.0215918 28.0625 74.6875 C28.05798828 75.77998047 28.05347656 76.87246094 28.04882812 77.99804688 C28.03699826 80.70708495 28.02051543 83.41601599 28 86.125 C28.98742187 85.5475 29.97484375 84.97 30.9921875 84.375 C32.28632735 83.624774 33.58060537 82.87478632 34.875 82.125 C35.85146484 81.55265625 35.85146484 81.55265625 36.84765625 80.96875 C41.7734375 78.125 41.7734375 78.125 44 78.125 C43.99476318 77.53299805 43.98952637 76.94099609 43.98413086 76.33105469 C43.90190327 65.52697445 43.89978331 54.73329328 44.375 43.9375 C44.4212854 42.69274902 44.4212854 42.69274902 44.46850586 41.42285156 C44.66145241 37.57675683 44.83337399 34.39255386 47 31.125 C48.99954746 31.08245644 51.00041636 31.08419217 53 31.125 C54.676287 32.801287 54.13197827 34.85386602 54.13867188 37.09204102 C54.13416016 37.80416748 54.12964844 38.51629395 54.125 39.25 C54.12306641 39.98468506 54.12113281 40.71937012 54.11914062 41.47631836 C54.04334938 51.70076802 53.50896025 61.91466176 53 72.125 C53.55429688 71.7640625 54.10859375 71.403125 54.6796875 71.03125 C55.76636719 70.33515625 55.76636719 70.33515625 56.875 69.625 C57.95394531 68.92890625 57.95394531 68.92890625 59.0546875 68.21875 C61 67.125 61 67.125 63 67.125 C62.98839844 66.43277344 62.97679687 65.74054688 62.96484375 65.02734375 C62.90930408 59.00525634 63.03176708 53.01131279 63.375 47 C63.44460937 45.73929688 63.51421875 44.47859375 63.5859375 43.1796875 C64 40.125 64 40.125 66 38.125 C69.125 38 69.125 38 72 38.125 C73.45033876 41.02567751 73.13186691 43.58161852 73.125 46.8125 C73.12757813 48.01261719 73.13015625 49.21273437 73.1328125 50.44921875 C73.00181982 54.07463384 72.57884761 57.5462517 72 61.125 C73.01320312 60.4753125 74.02640625 59.825625 75.0703125 59.15625 C76.42143628 58.31179764 77.7730235 57.46808647 79.125 56.625 C80.12273437 55.98111328 80.12273437 55.98111328 81.140625 55.32421875 C85.2268075 52.80040015 88.04067976 51.46174745 93 52.125 C94 53.125 94 53.125 94.5234375 55.8828125 C94 59.125 94 59.125 92.62207031 60.45996094 C90.67194644 61.75761928 88.68903745 62.89265144 86.625 64 C85.57699219 64.60328125 85.57699219 64.60328125 84.5078125 65.21875 C79.36750638 68.125 79.36750638 68.125 77 68.125 C77 68.785 77 69.445 77 70.125 C78.27230469 70.50785156 78.27230469 70.50785156 79.5703125 70.8984375 C83.23752093 72.20994484 86.46574557 73.87143123 89.875 75.75 C91.02742187 76.38164063 92.17984375 77.01328125 93.3671875 77.6640625 C94.23601562 78.14617187 95.10484375 78.62828125 96 79.125 C96.125 81.5 96.125 81.5 96 84.125 C95.34 84.785 94.68 85.445 94 86.125 C88.4053204 86.05318126 84.85679465 84.08232896 80.1340332 81.22607422 C72.82796867 76.49062742 72.82796867 76.49062742 64.5390625 75.578125 C62.03352761 76.88473632 60.04357657 78.18123822 58 80.125 C58.74552124 80.51655273 58.74552124 80.51655273 59.50610352 80.91601562 C60.55689087 81.46805664 60.55689087 81.46805664 61.62890625 82.03125 C62.41023926 82.44165527 63.19157227 82.85206055 63.99658203 83.27490234 C65.71599643 84.17959898 67.43441284 85.08619471 69.15185547 85.99462891 C73.27362862 88.17394843 77.3999793 90.33681034 81.56640625 92.4296875 C82.25468506 92.78095703 82.94296387 93.13222656 83.65209961 93.49414062 C84.94294393 94.15226197 86.23921629 94.79986964 87.54125977 95.43554688 C91.75399343 97.60576084 91.75399343 97.60576084 92.98828125 100.2109375 C93.00499095 102.94018802 91.77148124 104.14094101 90 106.125 C85.95697304 105.50513088 82.78469442 104.19833986 79.140625 102.359375 C78.02429688 101.79863281 76.90796875 101.23789063 75.7578125 100.66015625 C74.60023438 100.07105469 73.44265625 99.48195313 72.25 98.875 C71.10789063 98.30136719 69.96578125 97.72773437 68.7890625 97.13671875 C63.03527918 94.23337291 57.35237951 91.27141884 51.80200195 87.99365234 C49.87296246 86.91677424 49.87296246 86.91677424 46.9375 87 C43.54515549 88.29919577 40.72589283 90.0198834 37.734375 92.06640625 C36 93.125 36 93.125 34 93.125 C36.76143145 96.37554108 40.38063434 98.16865403 44.0625 100.1875 C50.74493243 103.86993243 50.74493243 103.86993243 53 106.125 C53.37109375 108.5625 53.37109375 108.5625 53 111.125 C51.34765625 112.75 51.34765625 112.75 49.0625 114.125 C48.25039062 114.62257813 47.43828125 115.12015625 46.6015625 115.6328125 C42.75566851 117.83871566 38.91075769 120.03556445 35 122.125 C36.36555166 123.11730087 37.74298245 124.09326327 39.125 125.0625 C39.89070312 125.60777344 40.65640625 126.15304688 41.4453125 126.71484375 C44.51290234 128.40811582 46.48545854 128.9238884 50 129.125 C52.74286662 128.06057385 55.10531804 126.97272427 57.6640625 125.57421875 C58.3785556 125.20021439 59.09304871 124.82621002 59.82919312 124.44087219 C62.10276862 123.24642253 64.36372749 122.03005271 66.625 120.8125 C68.15285769 120.00436756 69.68149676 119.19771055 71.2109375 118.39257812 C74.01620983 116.91366648 76.81648869 115.42608456 79.61181641 113.9284668 C80.72991699 113.33332275 81.84801758 112.73817871 83 112.125 C83.76876465 111.70839111 84.5375293 111.29178223 85.32958984 110.86254883 C87 110.125 87 110.125 89.125 110.375 C91 111.125 91 111.125 93 113.125 C93.16796875 115.4453125 93.16796875 115.4453125 92 118.125 C89.30359581 120.13910434 86.33503006 121.53817563 83.3125 123 C82.03366943 123.64582031 82.03366943 123.64582031 80.72900391 124.3046875 C78.16147347 125.59686534 75.58314204 126.86436632 73 128.125 C70.90143467 129.15541149 68.80347897 130.18694867 66.70776367 131.22314453 C64.97443416 132.07607103 63.23351348 132.91352008 61.4921875 133.75 C58.88584476 134.88072571 58.88584476 134.88072571 58 137.125 C58.721875 137.41375 59.44375 137.7025 60.1875 138 C63 139.125 63 139.125 65.36914062 140.33349609 C67.96972562 141.38806564 67.96972562 141.38806564 70.41601562 140.34228516 C71.23779297 139.87097168 72.05957031 139.3996582 72.90625 138.9140625 C73.81503906 138.41132813 74.72382813 137.90859375 75.66015625 137.390625 C76.59730469 136.84921875 77.53445312 136.3078125 78.5 135.75 C80.35930325 134.69119457 82.22373988 133.64134117 84.09375 132.6015625 C85.32641602 131.8912085 85.32641602 131.8912085 86.58398438 131.16650391 C89.29846035 129.99633874 91.07464314 129.77196093 94 130.125 C96 132.125 96 132.125 96.125 134.75 C96.08375 135.53375 96.0425 136.3175 96 137.125 C93.2118978 138.6316972 90.41896042 140.12919804 87.625 141.625 C86.8309375 142.05425781 86.036875 142.48351562 85.21875 142.92578125 C84.45820313 143.33183594 83.69765625 143.73789063 82.9140625 144.15625 C82.2123291 144.53330078 81.5105957 144.91035156 80.78759766 145.29882812 C79 146.125 79 146.125 77 146.125 C77 146.785 77 147.445 77 148.125 C77.69480469 148.38796875 78.38960937 148.6509375 79.10546875 148.921875 C82.28590756 150.24383877 85.28424419 151.73330821 88.3125 153.375 C89.38113281 153.93703125 90.44976562 154.4990625 91.55078125 155.078125 C94 157.125 94 157.125 94.41796875 160.296875 C94 163.125 94 163.125 93 164.125 C87.18334102 164.90291184 83.81775822 162.65346606 79.125 159.625 C78.43664062 159.19574219 77.74828125 158.76648438 77.0390625 158.32421875 C75.35187139 157.2697243 73.67486736 156.19896075 72 155.125 C72.16242188 156.12917969 72.32484375 157.13335937 72.4921875 158.16796875 C72.98073121 161.9748517 73.13323848 165.60248929 73.125 169.4375 C73.12757813 170.65050781 73.13015625 171.86351562 73.1328125 173.11328125 C73 176.125 73 176.125 72 178.125 C69.125 178.25 69.125 178.25 66 178.125 C63.28336207 175.40836207 63.69246879 173.82305347 63.5859375 170.0234375 C63.54726562 168.81171875 63.50859375 167.6 63.46875 166.3515625 C63.42234375 164.44503906 63.42234375 164.44503906 63.375 162.5 C63.33632812 161.22125 63.29765625 159.9425 63.2578125 158.625 C63.16328951 155.45847983 63.07773643 152.2919696 63 149.125 C61.84951172 148.68027344 61.84951172 148.68027344 60.67578125 148.2265625 C57.92542825 147.09430039 55.51460611 145.70560955 53 144.125 C53.0721875 145.16914063 53.144375 146.21328125 53.21875 147.2890625 C53.79885357 156.25795918 54.10730898 165.19898776 54.125 174.1875 C54.13176758 175.6418042 54.13176758 175.6418042 54.13867188 177.12548828 C54.13673828 178.02380371 54.13480469 178.92211914 54.1328125 179.84765625 C54.13168457 180.64953369 54.13055664 181.45141113 54.12939453 182.27758789 C54 184.125 54 184.125 53 185.125 C51.00041636 185.16580783 48.99954746 185.16754356 47 185.125 C44.39207799 181.19191437 44.54444371 176.86934137 44.375 172.3125 C44.33705322 171.45043945 44.29910645 170.58837891 44.26000977 169.70019531 C43.84590636 159.1795274 43.90688336 148.65147838 44 138.125 C43.29488281 137.85945312 42.58976563 137.59390625 41.86328125 137.3203125 C38.84432214 136.06001033 36.04814924 134.58542006 33.1875 133 C32.21167969 132.46117187 31.23585938 131.92234375 30.23046875 131.3671875 C29.49441406 130.95726562 28.75835937 130.54734375 28 130.125 C28.00523682 130.81650146 28.01047363 131.50800293 28.01586914 132.22045898 C28.036575 135.33446352 28.04963963 138.44845361 28.0625 141.5625 C28.07087891 142.65111328 28.07925781 143.73972656 28.08789062 144.86132812 C28.09111328 145.89580078 28.09433594 146.93027344 28.09765625 147.99609375 C28.10289307 148.95443115 28.10812988 149.91276855 28.11352539 150.90014648 C28 153.125 28 153.125 27 154.125 C20.90556141 153.81910154 16.73891171 151.65508632 11.5625 148.5625 C10.83095703 148.13775391 10.09941406 147.71300781 9.34570312 147.27539062 C7.55786242 146.23540486 5.77807338 145.18159823 4 144.125 C4 149.735 4 155.345 4 161.125 C5.65 161.785 7.3 162.445 9 163.125 C10.99099126 164.31674091 12.95395928 165.55593279 14.89453125 166.828125 C15.44558029 167.18839783 15.99662933 167.54867065 16.56437683 167.91986084 C17.72635948 168.68094063 18.88692594 169.4441865 20.04614258 170.20947266 C21.7935573 171.3625007 23.54575025 172.5079495 25.29882812 173.65234375 C31.35033941 177.61807263 37.29624623 181.66938214 43 186.125 C42.125 191 42.125 191 41 192.125 C35.23457534 191.83636798 31.51400099 189.91959026 26.9375 186.625 C25.63365306 185.72014177 24.32894255 184.8165268 23.0234375 183.9140625 C22.36311523 183.45290039 21.70279297 182.99173828 21.02246094 182.51660156 C17.75239161 180.26655386 14.40955135 178.13312401 11.0625 176 C10.4533374 175.61005859 9.8441748 175.22011719 9.21655273 174.81835938 C7.81185643 173.91928847 6.40606216 173.02193333 5 172.125 C3.9779223 176.10731757 3.76263638 179.1734194 5 183.125 C8.64321722 186.93572146 13.47479102 189.38129198 18.01831055 191.96264648 C21.19708023 193.82714352 24.09530303 195.85127191 27 198.125 C27.5625 200.8125 27.5625 200.8125 27 203.125 C26.34 203.785 25.68 204.445 25 205.125 C19.87082665 204.98225863 15.84593749 201.7641837 11.6875 199.0625 C10.57665039 198.35383789 10.57665039 198.35383789 9.44335938 197.63085938 C7.62448781 196.46912851 5.8116341 195.29798518 4 194.125 C4.00523682 194.75591553 4.01047363 195.38683105 4.01586914 196.03686523 C4.03657826 198.87873347 4.04964066 201.72058588 4.0625 204.5625 C4.07087891 205.55572266 4.07925781 206.54894531 4.08789062 207.57226562 C4.09111328 208.51650391 4.09433594 209.46074219 4.09765625 210.43359375 C4.10289307 211.30814209 4.10812988 212.18269043 4.11352539 213.08374023 C4 215.125 4 215.125 3 216.125 C0 216.25 0 216.25 -3 216.125 C-4 215.125 -4 215.125 -4.11352539 213.08374023 C-4.10567017 211.77191772 -4.10567017 211.77191772 -4.09765625 210.43359375 C-4.09282227 209.01723633 -4.09282227 209.01723633 -4.08789062 207.57226562 C-4.07532227 206.08243164 -4.07532227 206.08243164 -4.0625 204.5625 C-4.05798828 203.56541016 -4.05347656 202.56832031 -4.04882812 201.54101562 C-4.03700007 199.06895151 -4.02051849 196.59700482 -4 194.125 C-4.48879639 194.46345947 -4.97759277 194.80191895 -5.48120117 195.15063477 C-7.70633602 196.67858704 -9.94641097 198.18305675 -12.1875 199.6875 C-13.34088867 200.48704102 -13.34088867 200.48704102 -14.51757812 201.30273438 C-15.26845703 201.80224609 -16.01933594 202.30175781 -16.79296875 202.81640625 C-17.4789917 203.28248291 -18.16501465 203.74855957 -18.87182617 204.22875977 C-21.62787291 205.38941682 -23.18379182 204.99058262 -26 204.125 C-27 203.125 -27 203.125 -27.328125 200.76953125 C-27 198.125 -27 198.125 -25.234375 196.38671875 C-24.41453125 195.86722656 -23.5946875 195.34773437 -22.75 194.8125 C-21.85023437 194.21308594 -20.95046875 193.61367187 -20.0234375 192.99609375 C-17.93645147 191.70453521 -15.81318445 190.47044482 -13.6640625 189.28515625 C-10.43857458 187.41192158 -7.67160182 185.73363478 -5 183.125 C-4.0094197 179.26480047 -4.22854873 176.01082862 -5 172.125 C-6.77837471 173.27685287 -8.55672387 174.42874519 -10.33496094 175.58081055 C-11.8710757 176.57469973 -13.40819872 177.5670322 -14.94628906 178.55786133 C-18.67536888 180.96168949 -22.39218533 183.37814211 -26.0703125 185.859375 C-26.69341309 186.27453369 -27.31651367 186.68969238 -27.95849609 187.11743164 C-29.65943941 188.25208925 -31.35336746 189.39724267 -33.046875 190.54296875 C-36.08779336 192.17203216 -37.6207422 192.67442478 -41 192.125 C-41.99 191.135 -41.99 191.135 -43 190.125 C-42.8702064 186.93726925 -42.41238115 185.53307655 -40.12890625 183.2734375 C-33.38736606 178.61489983 -26.49536505 174.27065944 -19.45922852 170.06982422 C-15.88976032 167.93354862 -12.43149018 165.75770949 -9.078125 163.29296875 C-6 161.125 -6 161.125 -4 161.125 C-4.33 155.845 -4.66 150.565 -5 145.125 C-6.16917969 145.85847656 -7.33835937 146.59195313 -8.54296875 147.34765625 C-10.09067516 148.29504018 -11.63887851 149.24161263 -13.1875 150.1875 C-13.95642578 150.67283203 -14.72535156 151.15816406 -15.51757812 151.65820312 C-21.29654338 155.15534519 -21.29654338 155.15534519 -24.98828125 154.99609375 C-27 154.125 -27 154.125 -28 153.125 C-28.08713831 151.41727642 -28.10700007 149.70601351 -28.09765625 147.99609375 C-28.09282227 146.44438477 -28.09282227 146.44438477 -28.08789062 144.86132812 C-28.07532227 143.2284082 -28.07532227 143.2284082 -28.0625 141.5625 C-28.05798828 140.47001953 -28.05347656 139.37753906 -28.04882812 138.25195312 C-28.03699826 135.54291505 -28.02051543 132.83398401 -28 130.125 C-28.98742187 130.7025 -29.97484375 131.28 -30.9921875 131.875 C-32.28632735 132.625226 -33.58060537 133.37521368 -34.875 134.125 C-35.52597656 134.5065625 -36.17695312 134.888125 -36.84765625 135.28125 C-41.7734375 138.125 -41.7734375 138.125 -44 138.125 C-43.98839844 139.218125 -43.97679687 140.31125 -43.96484375 141.4375 C-43.89573353 150.9862291 -44.03344961 160.51939358 -44.375 170.0625 C-44.40585693 171.09826172 -44.43671387 172.13402344 -44.46850586 173.20117188 C-44.5072583 174.17505859 -44.54601074 175.14894531 -44.5859375 176.15234375 C-44.6173584 177.01593506 -44.6487793 177.87952637 -44.68115234 178.76928711 C-45.01886232 181.26435874 -45.74934315 182.95625445 -47 185.125 C-48.99954746 185.16754356 -51.00041636 185.16580783 -53 185.125 C-54.57158648 183.55341352 -54.12976926 181.99319845 -54.1328125 179.8125 C-54.13474609 178.90902832 -54.13667969 178.00555664 -54.13867188 177.07470703 C-54.13416016 176.10130371 -54.12964844 175.12790039 -54.125 174.125 C-54.12306641 173.13999512 -54.12113281 172.15499023 -54.11914062 171.14013672 C-54.06856801 162.44305235 -53.64402494 153.79633585 -53 145.125 C-53.83144531 145.558125 -53.83144531 145.558125 -54.6796875 146 C-55.40414062 146.37125 -56.12859375 146.7425 -56.875 147.125 C-57.59429687 147.49625 -58.31359375 147.8675 -59.0546875 148.25 C-61 149.125 -61 149.125 -63 149.125 C-63.01981934 149.93243652 -63.03963867 150.73987305 -63.06005859 151.57177734 C-63.15505899 155.21485875 -63.26483912 158.85734686 -63.375 162.5 C-63.4059375 163.77101562 -63.436875 165.04203125 -63.46875 166.3515625 C-63.52675781 168.16914063 -63.52675781 168.16914063 -63.5859375 170.0234375 C-63.6173584 171.14411621 -63.6487793 172.26479492 -63.68115234 173.41943359 C-64 176.125 -64 176.125 -66 178.125 C-69.125 178.25 -69.125 178.25 -72 178.125 C-73.45033876 175.22432249 -73.13186691 172.66838148 -73.125 169.4375 C-73.12886719 167.63732422 -73.12886719 167.63732422 -73.1328125 165.80078125 C-73.00181982 162.17536616 -72.57884761 158.7037483 -72 155.125 C-73.51980469 156.09953125 -73.51980469 156.09953125 -75.0703125 157.09375 C-76.42143628 157.93820236 -77.7730235 158.78191353 -79.125 159.625 C-80.12273437 160.26888672 -80.12273437 160.26888672 -81.140625 160.92578125 C-85.2268075 163.44959985 -88.04067976 164.78825255 -93 164.125 C-94 163.125 -94 163.125 -94.5234375 160.3671875 C-94 157.125 -94 157.125 -92.62207031 155.79003906 C-90.67194644 154.49238072 -88.68903745 153.35734856 -86.625 152.25 C-85.57699219 151.64671875 -85.57699219 151.64671875 -84.5078125 151.03125 C-79.36750638 148.125 -79.36750638 148.125 -77 148.125 C-77 147.465 -77 146.805 -77 146.125 C-77.68578125 146.02574219 -78.3715625 145.92648438 -79.078125 145.82421875 C-82.61462775 144.97791662 -85.51444655 143.59553814 -88.75 141.9375 C-89.89984375 141.36644531 -91.0496875 140.79539063 -92.234375 140.20703125 C-95 138.125 -95 138.125 -96.015625 135.01171875 C-96 132.125 -96 132.125 -94 130.125 C-87.18984018 130.24168498 -81.22582853 134.61279955 -75.51953125 137.97070312 C-70.8314028 140.67565214 -70.8314028 140.67565214 -65.65527344 140.52490234 C-63.49236028 139.46772293 -63.49236028 139.46772293 -61.58935547 138.16479492 C-60 137.125 -60 137.125 -58 137.125 C-60.67521486 133.93987353 -64.11320859 132.39410483 -67.78515625 130.62109375 C-68.44204941 130.29714127 -69.09894257 129.97318878 -69.77574158 129.63941956 C-71.86854463 128.60799516 -73.96513086 127.58460362 -76.0625 126.5625 C-78.16307256 125.53612482 -80.26269863 124.50797372 -82.35997009 123.47486877 C-83.66342893 122.83302049 -84.96884529 122.19512906 -86.27638245 121.56163025 C-88.88790131 120.27760621 -90.92637048 119.19862952 -93 117.125 C-92.67028521 113.82785207 -92.3773161 112.5023161 -90 110.125 C-85.1874378 110.39760701 -81.21043288 112.9438068 -77.06640625 115.1953125 C-75.51527491 116.01749512 -73.96383297 116.83909196 -72.41210938 117.66015625 C-69.98152311 118.9549936 -67.55388942 120.25465769 -65.1315918 121.56494141 C-62.78395478 122.83127001 -60.42629243 124.07699731 -58.06640625 125.3203125 C-57.34747696 125.71606476 -56.62854767 126.11181702 -55.88783264 126.51956177 C-51.5349178 128.79243914 -48.91120007 129.63750233 -44 128.125 C-41.7295709 126.98901093 -41.7295709 126.98901093 -39.75 125.5625 C-36.18696884 123.125 -36.18696884 123.125 -34 123.125 C-34 122.465 -34 121.805 -34 121.125 C-34.68578125 120.87878906 -35.3715625 120.63257812 -36.078125 120.37890625 C-39.50597004 118.9078658 -42.60044618 117.0407029 -45.75 115.0625 C-46.33910156 114.69833984 -46.92820313 114.33417969 -47.53515625 113.95898438 C-51.84776311 111.27723689 -51.84776311 111.27723689 -53 110.125 C-53.30859375 107.75 -53.30859375 107.75 -53 105.125 C-51.34765625 103.5 -51.34765625 103.5 -49.0625 102.125 C-48.25039063 101.62742187 -47.43828125 101.12984375 -46.6015625 100.6171875 C-42.75566851 98.41128434 -38.91075769 96.21443555 -35 94.125 C-36.36555166 93.13269913 -37.74298245 92.15673673 -39.125 91.1875 C-39.89070313 90.64222656 -40.65640625 90.09695312 -41.4453125 89.53515625 C-44.55073762 87.82099957 -46.43168525 87.28998937 -50 87.125 C-53.02716279 88.15828169 -55.74586937 89.67263681 -58.5390625 91.21875 C-59.34233978 91.64426147 -60.14561707 92.06977295 -60.97323608 92.50817871 C-63.53229321 93.86525493 -66.07934102 95.24297463 -68.625 96.625 C-71.17848604 98.00553545 -73.73413401 99.38100411 -76.29818726 100.74182129 C-77.89165303 101.58792632 -79.47904958 102.445583 -81.05947876 103.3157959 C-82.14112808 103.89134216 -82.14112808 103.89134216 -83.24462891 104.47851562 C-84.19011093 104.99267029 -84.19011093 104.99267029 -85.1546936 105.51721191 C-87.5050373 106.291344 -88.71085451 106.00649527 -91 105.125 C-93 103.125 -93 103.125 -93.1640625 100.80078125 C-91.27737468 96.46393172 -87.50030404 95.29724503 -83.375 93.3125 C-81.64685249 92.44457353 -79.91899179 91.57607578 -78.19140625 90.70703125 C-77.32273926 90.27729004 -76.45407227 89.84754883 -75.55908203 89.40478516 C-71.77037319 87.51006929 -68.04142628 85.50911582 -64.3125 83.5 C-63.07962219 82.84078082 -61.84656971 82.18188812 -60.61328125 81.5234375 C-59.31970703 80.83121094 -59.31970703 80.83121094 -58 80.125 C-61.19738414 77.8413411 -64.18940295 76.14656701 -68 75.125 C-72.22605848 76.08062289 -75.6281503 78.14373969 -79.3125 80.375 C-81.21845061 81.47542158 -83.13101243 82.56449161 -85.05078125 83.640625 C-85.88262939 84.13852539 -86.71447754 84.63642578 -87.5715332 85.14941406 C-90.51022762 86.32997332 -92.01919298 86.07456904 -95 85.125 C-96 84.125 -96 84.125 -96.0625 81.5625 C-96.0315625 80.3559375 -96.0315625 80.3559375 -96 79.125 C-93.40011448 77.61712623 -90.79559803 76.11854539 -88.1875 74.625 C-87.44951172 74.19574219 -86.71152344 73.76648438 -85.95117188 73.32421875 C-85.23896484 72.91816406 -84.52675781 72.51210937 -83.79296875 72.09375 C-83.1383667 71.71669922 -82.48376465 71.33964844 -81.80932617 70.95117188 C-80 70.125 -80 70.125 -77 70.125 C-77 69.465 -77 68.805 -77 68.125 C-77.69480469 67.86203125 -78.38960937 67.5990625 -79.10546875 67.328125 C-82.28590756 66.00616123 -85.28424419 64.51669179 -88.3125 62.875 C-89.38113281 62.31296875 -90.44976562 61.7509375 -91.55078125 61.171875 C-94 59.125 -94 59.125 -94.41796875 55.953125 C-94 53.125 -94 53.125 -93 52.125 C-87.18334102 51.34708816 -83.81775822 53.59653394 -79.125 56.625 C-78.43664062 57.05425781 -77.74828125 57.48351562 -77.0390625 57.92578125 C-75.35187139 58.9802757 -73.67486736 60.05103925 -72 61.125 C-72.16242188 60.12082031 -72.32484375 59.11664063 -72.4921875 58.08203125 C-72.98073121 54.2751483 -73.13323848 50.64751071 -73.125 46.8125 C-73.12757812 45.59949219 -73.13015625 44.38648438 -73.1328125 43.13671875 C-73 40.125 -73 40.125 -72 38.125 C-69.125 38 -69.125 38 -66 38.125 C-63.17312433 40.95187567 -63.59325258 43.04720325 -63.375 47 C-63.33705322 47.66459229 -63.29910645 48.32918457 -63.26000977 49.01391602 C-62.94214311 55.0504994 -62.89870796 61.08124188 -63 67.125 C-62.24332031 67.42148438 -61.48664062 67.71796875 -60.70703125 68.0234375 C-57.71843944 69.23957443 -54.87143959 70.65589137 -52 72.125 C-52.33 71.135 -52.66 70.145 -53 69.125 C-53.14569889 67.77195803 -53.24662758 66.41376133 -53.31640625 65.0546875 C-53.35846191 64.24813721 -53.40051758 63.44158691 -53.44384766 62.6105957 C-53.48300293 61.74909912 -53.5221582 60.88760254 -53.5625 60 C-53.6042334 59.11723389 -53.6459668 58.23446777 -53.68896484 57.32495117 C-53.95049474 51.36260335 -54.10369023 45.40552664 -54.125 39.4375 C-54.13188843 38.35154541 -54.13188843 38.35154541 -54.13891602 37.24365234 C-54.1237135 32.2487135 -54.1237135 32.2487135 -53 31.125 C-51.00041636 31.08419217 -48.99954746 31.08245644 -47 31.125 C-44.39207799 35.05808563 -44.54444371 39.38065863 -44.375 43.9375 C-44.31807983 45.23059082 -44.31807983 45.23059082 -44.26000977 46.54980469 C-43.84590636 57.0704726 -43.90688336 67.59852162 -44 78.125 C-43.27425781 78.40085937 -42.54851563 78.67671875 -41.80078125 78.9609375 C-37.67330833 80.67640044 -33.88207537 82.92322591 -30 85.125 C-29.98018066 84.53485107 -29.96036133 83.94470215 -29.93994141 83.33666992 C-29.84465341 80.66149904 -29.73499061 77.98710502 -29.625 75.3125 C-29.5940625 74.38373047 -29.563125 73.45496094 -29.53125 72.49804688 C-29.49257812 71.60537109 -29.45390625 70.71269531 -29.4140625 69.79296875 C-29.36693115 68.55969849 -29.36693115 68.55969849 -29.31884766 67.30151367 C-29 65.125 -29 65.125 -27 62.125 C-20.89395661 62.56630406 -16.77540413 64.57311172 -11.5625 67.6875 C-10.83095703 68.11224609 -10.09941406 68.53699219 -9.34570312 68.97460938 C-7.55786242 70.01459514 -5.77807338 71.06840177 -4 72.125 C-4 66.515 -4 60.905 -4 55.125 C-5.65 54.465 -7.3 53.805 -9 53.125 C-10.50453975 52.24567826 -11.98507872 51.32424377 -13.44140625 50.3671875 C-14.26721191 49.82747314 -15.09301758 49.28775879 -15.94384766 48.73168945 C-16.80800293 48.16023193 -17.6721582 47.58877441 -18.5625 47 C-19.8935376 46.12637817 -19.8935376 46.12637817 -21.25146484 45.23510742 C-23.83716238 43.53602218 -26.41876564 41.83085474 -29 40.125 C-30.30318147 39.26922061 -31.60654124 38.41371259 -32.91015625 37.55859375 C-40.71763393 32.40736607 -40.71763393 32.40736607 -43 30.125 C-42.44444444 25.56944444 -42.44444444 25.56944444 -41 24.125 C-35.23457534 24.41363202 -31.51400099 26.33040974 -26.9375 29.625 C-25.63365306 30.52985823 -24.32894255 31.4334732 -23.0234375 32.3359375 C-22.36311523 32.79709961 -21.70279297 33.25826172 -21.02246094 33.73339844 C-17.75239161 35.98344614 -14.40955135 38.11687599 -11.0625 40.25 C-10.4533374 40.63994141 -9.8441748 41.02988281 -9.21655273 41.43164062 C-7.81185643 42.33071153 -6.40606216 43.22806667 -5 44.125 C-3.9779223 40.14268243 -3.76263638 37.0765806 -5 33.125 C-8.64321722 29.31427854 -13.47479102 26.86870802 -18.01831055 24.28735352 C-21.19708023 22.42285648 -24.09530303 20.39872809 -27 18.125 C-27.5625 15.4375 -27.5625 15.4375 -27 13.125 C-26.34 12.465 -25.68 11.805 -25 11.125 C-19.87082665 11.26774137 -15.84593749 14.4858163 -11.6875 17.1875 C-10.57665039 17.89616211 -10.57665039 17.89616211 -9.44335938 18.61914062 C-7.62448781 19.78087149 -5.8116341 20.95201482 -4 22.125 C-4.00523682 21.49408447 -4.01047363 20.86316895 -4.01586914 20.21313477 C-4.03657826 17.37126653 -4.04964066 14.52941412 -4.0625 11.6875 C-4.07087891 10.69427734 -4.07925781 9.70105469 -4.08789062 8.67773438 C-4.09111328 7.73349609 -4.09433594 6.78925781 -4.09765625 5.81640625 C-4.10289307 4.94185791 -4.10812988 4.06730957 -4.11352539 3.16625977 C-3.92954672 -0.14179542 -3.37414143 0.14058923 0 0 Z " fill="#06AFEF" transform="translate(98,6.875)"/>
<path d="M0 0 C1.18767378 12.58934205 1.18767378 12.58934205 0 18 C-2.83142813 21.40759083 -5.88993128 22.55858153 -10 24 C-11.98 24.99 -13.96 25.98 -16 27 C-16 20.73 -16 14.46 -16 8 C-12.596875 6.02 -12.596875 6.02 -9.125 4 C-8.05596436 3.37351562 -8.05596436 3.37351562 -6.96533203 2.734375 C-2.22222222 0 -2.22222222 0 0 0 Z " fill="#F3FBFE" transform="translate(94,123)"/>
<path d="M0 0 C0 6.27 0 12.54 0 19 C-2.26875 20.32 -4.5375 21.64 -6.875 23 C-7.58769043 23.41765625 -8.30038086 23.8353125 -9.03466797 24.265625 C-13.77777778 27 -13.77777778 27 -16 27 C-17.93467528 11.5225978 -17.93467528 11.5225978 -14.75634766 7.37841797 C-11.25063667 4.45103558 -7.2263846 2.68946737 -3 1 C-1 0 -1 0 0 0 Z " fill="#F3FBFD" transform="translate(118,80)"/>
<path d="M0 0 C2.10988152 1.13966398 4.19175521 2.33202757 6.25 3.5625 C7.32765625 4.20316406 8.4053125 4.84382813 9.515625 5.50390625 C10.33546875 5.99761719 11.1553125 6.49132812 12 7 C10.66233647 11.01299059 8.83876942 11.6636149 5.25 13.8125 C3.67992187 14.78123047 3.67992187 14.78123047 2.078125 15.76953125 C-1 17 -1 17 -3.49609375 16.42578125 C-4.32238281 15.95527344 -5.14867188 15.48476562 -6 15 C-7.02738281 14.43023437 -8.05476563 13.86046875 -9.11328125 13.2734375 C-10.16902344 12.64695312 -11.22476563 12.02046875 -12.3125 11.375 C-13.38113281 10.74335937 -14.44976562 10.11171875 -15.55078125 9.4609375 C-16.35902344 8.97882813 -17.16726562 8.49671875 -18 8 C-14.92802674 5.46982096 -11.88801311 3.17379537 -8.4375 1.1875 C-7.69371094 0.74792969 -6.94992188 0.30835937 -6.18359375 -0.14453125 C-3.48707806 -1.20094795 -2.66650336 -1.08434517 0 0 Z " fill="#F5FBFE" transform="translate(76,107)"/>
<path d="M0 0 C0.82628906 0.47050781 1.65257813 0.94101563 2.50390625 1.42578125 C3.53128906 1.99554688 4.55867188 2.5653125 5.6171875 3.15234375 C6.67292969 3.77882813 7.72867188 4.4053125 8.81640625 5.05078125 C9.88503906 5.68242188 10.95367187 6.3140625 12.0546875 6.96484375 C13.26705078 7.68800781 13.26705078 7.68800781 14.50390625 8.42578125 C11.43193299 10.95596029 8.39191936 13.25198588 4.94140625 15.23828125 C4.19761719 15.67785156 3.45382813 16.11742188 2.6875 16.5703125 C-0.00901569 17.6267292 -0.82959039 17.51012642 -3.49609375 16.42578125 C-5.60597527 15.28611727 -7.68784896 14.09375368 -9.74609375 12.86328125 C-11.36257812 11.90228516 -11.36257812 11.90228516 -13.01171875 10.921875 C-13.8315625 10.42816406 -14.65140625 9.93445313 -15.49609375 9.42578125 C-14.15843022 5.41279066 -12.33486317 4.76216635 -8.74609375 2.61328125 C-7.699375 1.96746094 -6.65265625 1.32164063 -5.57421875 0.65625 C-2.49609375 -0.57421875 -2.49609375 -0.57421875 0 0 Z " fill="#F6FCFE" transform="translate(123.49609375,106.57421875)"/>
<path d="M0 0 C5.64741258 2.25896503 10.68150942 5.05240281 16 8 C16 13.94 16 19.88 16 26 C10.35258742 23.74103497 5.31849058 20.94759719 0 18 C0 12.06 0 6.12 0 0 Z " fill="#F2FBFD" transform="translate(102,123)"/>
<path d="M0 0 C5.64741258 2.25896503 10.68150942 5.05240281 16 8 C16 13.94 16 19.88 16 26 C10.35258742 23.74103497 5.31849058 20.94759719 0 18 C0 12.06 0 6.12 0 0 Z " fill="#F2FBFE" transform="translate(78,81)"/>
</svg>
