<?xml version="1.0" encoding="UTF-8"?>
<svg version="1.1" xmlns="http://www.w3.org/2000/svg" width="200" height="216">
<path d="M0 0 C66 0 132 0 200 0 C200 71.28 200 142.56 200 216 C134 216 68 216 0 216 C0 144.72 0 73.44 0 0 Z " fill="none" transform="translate(0,0)"/>
<path d="M0 0 C4.55555556 0.55555556 4.55555556 0.55555556 6 2 C6.15620555 3.41327947 6.25056173 4.8335459 6.31640625 6.25390625 C6.35830078 7.10791016 6.40019531 7.96191406 6.44335938 8.84179688 C6.48267578 9.73962891 6.52199219 10.63746094 6.5625 11.5625 C6.60568359 12.46419922 6.64886719 13.36589844 6.69335938 14.29492188 C6.79978142 16.52978485 6.90179988 18.76476308 7 21 C8.02480469 20.26652344 9.04960938 19.53304688 10.10546875 18.77734375 C11.46559856 17.82994299 12.8263062 16.88337141 14.1875 15.9375 C14.86103516 15.45216797 15.53457031 14.96683594 16.22851562 14.46679688 C21.33117851 10.95716045 21.33117851 10.95716045 24.98828125 11.19140625 C25.65214844 11.45824219 26.31601563 11.72507812 27 12 C27.495 14.475 27.495 14.475 28 17 C24.2890625 19.47395833 20.578125 21.94791667 16.8671875 24.421875 C16.2184668 24.86724609 15.56974609 25.31261719 14.90136719 25.77148438 C13 27 13 27 9.5078125 28.703125 C6.77626576 30.72068092 6.77626576 30.72068092 6.63232422 33.47167969 C6.62563346 36.00970789 6.73992553 38.47631443 7 41 C10.14642649 38.95924638 13.29202871 36.91722554 16.4375 34.875 C17.31599609 34.30523437 18.19449219 33.73546875 19.09960938 33.1484375 C19.97294922 32.58125 20.84628906 32.0140625 21.74609375 31.4296875 C22.62249512 30.8634668 23.49889648 30.29724609 24.40185547 29.71386719 C26.11807665 28.58176113 27.81586433 27.42114386 29.49267578 26.23144531 C30.26981934 25.68327148 31.04696289 25.13509766 31.84765625 24.5703125 C32.87064819 23.8280542 32.87064819 23.8280542 33.91430664 23.07080078 C36.45085402 21.76853029 38.18507322 21.72725081 41 22 C42 23 42 23 42.35058594 25.34448242 C42 28 42 28 40.07910156 29.81762695 C39.1919043 30.36894287 38.30470703 30.92025879 37.390625 31.48828125 C36.41295166 32.10815918 35.43527832 32.72803711 34.42797852 33.36669922 C33.37924561 34.00881348 32.3305127 34.65092773 31.25 35.3125 C30.20062256 35.98039551 29.15124512 36.64829102 28.07006836 37.33642578 C23.69232719 40.11883954 19.29586675 42.85250055 14.80078125 45.44140625 C13.73214844 46.07949219 12.66351563 46.71757813 11.5625 47.375 C10.20318359 48.12910156 10.20318359 48.12910156 8.81640625 48.8984375 C6.23719444 51.88255783 6.64340201 54.33379814 6.83959961 58.15869141 C6.9189978 59.07013916 6.9189978 59.07013916 7 60 C8.02480469 59.26652344 9.04960938 58.53304687 10.10546875 57.77734375 C11.46559856 56.82994299 12.8263062 55.88337141 14.1875 54.9375 C14.86103516 54.45216797 15.53457031 53.96683594 16.22851562 53.46679688 C21.33117851 49.95716045 21.33117851 49.95716045 24.98828125 50.19140625 C25.65214844 50.45824219 26.31601563 50.72507813 27 51 C27.495 53.475 27.495 53.475 28 56 C21 60.66666667 14 65.33333333 7 70 C6.63583953 72.43693311 6.63583953 72.43693311 6.8125 75.125 C6.83957031 76.03507812 6.86664063 76.94515625 6.89453125 77.8828125 C6.94673828 78.93082031 6.94673828 78.93082031 7 80 C10.14642649 77.95924638 13.29202871 75.91722554 16.4375 73.875 C17.31599609 73.30523437 18.19449219 72.73546875 19.09960938 72.1484375 C19.97294922 71.58125 20.84628906 71.0140625 21.74609375 70.4296875 C23.0606958 69.58035645 23.0606958 69.58035645 24.40185547 68.71386719 C26.11807665 67.58176113 27.81586433 66.42114386 29.49267578 65.23144531 C30.26981934 64.68327148 31.04696289 64.13509766 31.84765625 63.5703125 C32.52965088 63.07547363 33.21164551 62.58063477 33.91430664 62.07080078 C36.45085402 60.76853029 38.18507322 60.72725081 41 61 C42 62 42 62 42.35058594 64.34448242 C42 67 42 67 40.07910156 68.81762695 C39.1919043 69.36894287 38.30470703 69.92025879 37.390625 70.48828125 C36.41295166 71.10840088 35.43527832 71.72852051 34.42797852 72.36743164 C32.85487915 73.33024048 32.85487915 73.33024048 31.25 74.3125 C30.20062256 74.97822021 29.15124512 75.64394043 28.07006836 76.32983398 C23.67520739 79.11598045 19.25188448 81.85169094 14.80078125 84.546875 C13.73214844 85.21203125 12.66351563 85.8771875 11.5625 86.5625 C10.65628906 87.10003906 9.75007813 87.63757813 8.81640625 88.19140625 C6.69988036 89.94056605 6.69988036 89.94056605 6.53515625 93.05078125 C7.20904606 97.32630063 9.64585348 98.45084865 13 101 C15.54047914 104.46428974 15.16114341 107.81027137 15 112 C18.22154152 113.02903649 19.71179632 113.10940508 22.91918945 111.8918457 C23.97323975 111.32554443 25.02729004 110.75924316 26.11328125 110.17578125 C27.27923828 109.55896484 28.44519531 108.94214844 29.64648438 108.30664062 C30.86872269 107.64235581 32.09072642 106.97763918 33.3125 106.3125 C34.52208139 105.66599681 35.73236257 105.02080112 36.94335938 104.37695312 C39.26514648 103.14077992 41.58458213 101.90054609 43.90283203 100.65771484 C55.50078177 94.45007818 55.50078177 94.45007818 61 95 C61.33 96.65 61.66 98.3 62 100 C55.00622858 104.33759372 47.87100519 108.21929931 40.5 111.875 C39.51257813 112.37257813 38.52515625 112.87015625 37.5078125 113.3828125 C36.56679687 113.85203125 35.62578125 114.32125 34.65625 114.8046875 C33.80869141 115.22733887 32.96113281 115.64999023 32.08789062 116.08544922 C30 117 30 117 28 117 C30.13264466 119.34590913 31.97865766 120.9641112 35 122 C41.46030561 121.59259334 46.35753367 118.24618798 51.81054688 115.0625 C57.37112153 111.95293555 57.37112153 111.95293555 61.02734375 112.2265625 C61.67832031 112.48179688 62.32929688 112.73703125 63 113 C63 114.98 63 116.96 63 119 C60.3773768 120.33819498 57.75213401 121.6707151 55.125 123 C54.37863281 123.3815625 53.63226563 123.763125 52.86328125 124.15625 C52.14785156 124.5171875 51.43242187 124.878125 50.6953125 125.25 C50.03547363 125.58515625 49.37563477 125.9203125 48.69580078 126.265625 C47 127 47 127 45 127 C45 127.66 45 128.32 45 129 C46.64991582 129.70710678 48.3207762 130.36562656 50 131 C50.70125 131.2784375 51.4025 131.556875 52.125 131.84375 C56.70049907 132.09241843 59.90686521 129.77291808 63.8125 127.5625 C65.50855802 126.63960144 67.2051828 125.71774375 68.90234375 124.796875 C70.17827393 124.09594727 70.17827393 124.09594727 71.47998047 123.38085938 C75.25530599 121.31214777 79.05173544 119.29104504 82.875 117.3125 C83.52186768 116.96195557 84.16873535 116.61141113 84.83520508 116.25024414 C87.77749824 114.73567391 89.61079933 113.96128641 92.9453125 114.29296875 C93.62335938 114.52628906 94.30140625 114.75960937 95 115 C95 116.65 95 118.3 95 120 C84 126 73 132 62 138 C63.051875 138.680625 64.10375 139.36125 65.1875 140.0625 C65.77917969 140.44535156 66.37085938 140.82820312 66.98046875 141.22265625 C69.83104889 142.31988149 71.07628002 141.94867557 74 141 C77.67199183 139.20552335 81.21080485 137.17116114 84.76171875 135.15039062 C91.761991 131.29094849 91.761991 131.29094849 96 132 C97 133 97 133 97 138 C91.39 140.97 85.78 143.94 80 147 C82.99597751 149.99597751 86.09109153 152.03277207 89.6875 154.1875 C90.29400391 154.55552734 90.90050781 154.92355469 91.52539062 155.30273438 C93.01461388 156.20564926 94.50699815 157.10334696 96 158 C95.67 159.65 95.34 161.3 95 163 C91.9293478 163.94312889 90.48484356 164.21514933 87.5 162.890625 C86.675 162.34921875 85.85 161.8078125 85 161.25 C84.175 160.71890625 83.35 160.1878125 82.5 159.640625 C81.675 159.09921875 80.85 158.5578125 80 158 C78.33742212 156.99321673 76.67191217 155.99120507 75 155 C75.00523682 155.63091553 75.01047363 156.26183105 75.01586914 156.91186523 C75.03657826 159.75373347 75.04964066 162.59558588 75.0625 165.4375 C75.07087891 166.43072266 75.07925781 167.42394531 75.08789062 168.44726562 C75.09111328 169.39150391 75.09433594 170.33574219 75.09765625 171.30859375 C75.10289307 172.18314209 75.10812988 173.05769043 75.11352539 173.95874023 C75 176 75 176 74 177 C71.5 177.125 71.5 177.125 69 177 C67.25275966 175.25275966 67.80851502 172.76736507 67.74609375 170.390625 C67.69517578 169.24335938 67.64425781 168.09609375 67.59179688 166.9140625 C67.48963135 164.48795469 67.41373741 162.06058604 67.36523438 159.6328125 C67.30529297 158.48039063 67.24535156 157.32796875 67.18359375 156.140625 C67.14806396 155.08391602 67.11253418 154.02720703 67.07592773 152.93847656 C65.45152451 148.50205332 62.06958451 147.09118654 58 145 C58.0611499 146.71098877 58.0611499 146.71098877 58.12353516 148.45654297 C58.27174571 152.67921885 58.40648546 156.90223478 58.53710938 161.12548828 C58.59559255 162.95503709 58.65775332 164.78447212 58.72363281 166.61376953 C58.81756847 169.23969815 58.89837127 171.86574886 58.9765625 174.4921875 C59.02485703 175.72350906 59.02485703 175.72350906 59.0741272 176.97970581 C59.12733115 178.9859173 59.07301195 180.99441169 59 183 C58.34 183.66 57.68 184.32 57 185 C54.4375 184.75 54.4375 184.75 52 184 C50.87492922 181.74985845 50.85571274 180.478557 50.81396484 177.98095703 C50.78790665 176.7392424 50.78790665 176.7392424 50.76132202 175.47244263 C50.74469513 174.57661469 50.72806824 173.68078674 50.7109375 172.7578125 C50.65676622 170.86843657 50.60071796 168.9791137 50.54296875 167.08984375 C50.45401249 164.1051399 50.37495097 161.12190586 50.32763672 158.13623047 C50.27861559 155.25826163 50.18615515 152.38439541 50.0859375 149.5078125 C50.08145599 148.61603302 50.07697449 147.72425354 50.07235718 146.80545044 C50.03607208 145.97133636 49.99978699 145.13722229 49.96240234 144.27783203 C49.93694839 143.18101608 49.93694839 143.18101608 49.91098022 142.06204224 C48.78321284 138.95730102 48.78321284 138.95730102 42 136 C41.67 142.93 41.34 149.86 41 157 C39.35 157.33 37.7 157.66 36 158 C33.34047506 155.34047506 33.74043115 154.00453652 33.68359375 150.29296875 C33.64041016 149.14892578 33.59722656 148.00488281 33.55273438 146.82617188 C33.47630484 144.41281229 33.426544 141.9984514 33.40429688 139.58398438 C33.31606234 133.14758792 33.31606234 133.14758792 29.90283203 128.06103516 C27.63217742 126.79916501 25.46505819 125.80976393 23 125 C23.2165625 126.96066406 23.2165625 126.96066406 23.4375 128.9609375 C24.39915944 138.06202081 25.19500202 147.09191518 25.1875 156.25 C25.18814453 157.01747559 25.18878906 157.78495117 25.18945312 158.57568359 C25.13604854 163.86395146 25.13604854 163.86395146 24 165 C21.5 165.125 21.5 165.125 19 165 C15.61754572 161.61754572 16.66763736 150.17811319 16.4375 145.375 C16.3950415 144.51487305 16.35258301 143.65474609 16.30883789 142.76855469 C15.9592107 135.17383616 15.89634174 127.60160596 16 120 C10.23820522 119.00102349 10.23820522 119.00102349 5 121 C1.16862193 121.41645414 -0.67058933 121.17129355 -4.125 119.375 C-5.07375 118.92125 -6.0225 118.4675 -7 118 C-9.16716674 118.84886031 -9.16716674 118.84886031 -11 120 C-11.05534912 121.01312256 -11.11069824 122.02624512 -11.16772461 123.07006836 C-11.37580779 126.86659743 -11.58720956 130.66293597 -11.79956055 134.45922852 C-11.89062058 136.09524689 -11.98080765 137.73131411 -12.07006836 139.36743164 C-13.38180883 163.38180883 -13.38180883 163.38180883 -15 165 C-17.5 165.125 -17.5 165.125 -20 165 C-21.75904343 163.24095657 -21.16576838 160.92101173 -21.18945312 158.57568359 C-21.18848633 157.42447021 -21.18848633 157.42447021 -21.1875 156.25 C-21.18814453 155.46318848 -21.18878906 154.67637695 -21.18945312 153.86572266 C-21.1062663 144.19147312 -20.0611922 134.60757942 -19 125 C-22.50769893 126.15226816 -25.27455422 127.48015245 -28 130 C-29.3886575 134.35777185 -29.39558581 138.63857799 -29.4375 143.1875 C-29.51251589 145.55622216 -29.59420166 147.92474556 -29.68359375 150.29296875 C-29.69962646 151.3399292 -29.71565918 152.38688965 -29.73217773 153.46557617 C-30 156 -30 156 -32 158 C-33.65 157.67 -35.3 157.34 -37 157 C-37.495 146.605 -37.495 146.605 -38 136 C-44.78679939 138.9540331 -44.78679939 138.9540331 -45.89752197 142.05531311 C-45.90845886 142.78350754 -45.91939575 143.51170197 -45.93066406 144.26196289 C-45.96049377 145.09284927 -45.99032349 145.92373566 -46.02105713 146.77980042 C-46.01836823 148.11276405 -46.01836823 148.11276405 -46.015625 149.47265625 C-46.04299744 150.39211533 -46.07036987 151.3115744 -46.09857178 152.25889587 C-46.18135007 155.19371015 -46.2182645 158.12672598 -46.25 161.0625 C-46.30284788 164.00108238 -46.36549443 166.9388127 -46.4442749 169.8768158 C-46.49111186 171.70390773 -46.52179255 173.53149974 -46.534729 175.35914612 C-46.56056061 176.60074745 -46.56056061 176.60074745 -46.58691406 177.86743164 C-46.59466858 178.59483047 -46.6024231 179.32222931 -46.6104126 180.07167053 C-47.11130342 182.5509153 -48.00977395 183.48151626 -50 185 C-52.13745922 184.74853421 -53.45925779 184.54074221 -55 183 C-55.01697335 180.18642888 -54.9708943 177.40049073 -54.87890625 174.58984375 C-54.84348976 173.32679161 -54.84348976 173.32679161 -54.80735779 172.03822327 C-54.73053055 169.33781869 -54.64658888 166.63768729 -54.5625 163.9375 C-54.50929836 162.11134168 -54.45655786 160.28516986 -54.40429688 158.45898438 C-54.27488979 153.97248191 -54.13910001 149.48621199 -54 145 C-59.76055451 147.79661993 -59.76055451 147.79661993 -63.07592773 152.93847656 C-63.11145752 153.99518555 -63.1469873 155.05189453 -63.18359375 156.140625 C-63.24353516 157.29304687 -63.30347656 158.44546875 -63.36523438 159.6328125 C-63.38908203 160.82648438 -63.41292969 162.02015625 -63.4375 163.25 C-63.53773737 165.63032042 -63.64046067 168.01053792 -63.74609375 170.390625 C-63.78754517 171.9689209 -63.78754517 171.9689209 -63.82983398 173.57910156 C-64 176 -64 176 -65 177 C-67.5 177.125 -67.5 177.125 -70 177 C-71 176 -71 176 -71.11352539 173.95874023 C-71.10828857 173.08419189 -71.10305176 172.20964355 -71.09765625 171.30859375 C-71.09443359 170.36435547 -71.09121094 169.42011719 -71.08789062 168.44726562 C-71.07951172 167.45404297 -71.07113281 166.46082031 -71.0625 165.4375 C-71.05798828 164.44041016 -71.05347656 163.44332031 -71.04882812 162.41601562 C-71.03700007 159.94395151 -71.02051849 157.47200482 -71 155 C-71.95261719 155.56589844 -72.90523437 156.13179687 -73.88671875 156.71484375 C-75.15342726 157.4561028 -76.4203666 158.1969675 -77.6875 158.9375 C-78.31333984 159.31068359 -78.93917969 159.68386719 -79.58398438 160.06835938 C-82.97941475 162.04161996 -85.98803931 163.7759085 -90 164 C-92 162 -92 162 -92.09765625 159.67578125 C-90.40946047 155.56042854 -87.2284569 154.26440528 -83.4375 152.1875 C-82.72658203 151.78080078 -82.01566406 151.37410156 -81.28320312 150.95507812 C-79.5305131 149.9552214 -77.76630124 148.97561043 -76 148 C-79.35862051 145.29813944 -82.94651268 143.32834828 -86.75 141.3125 C-87.35199219 140.99216797 -87.95398438 140.67183594 -88.57421875 140.34179688 C-90.04788011 139.5581833 -91.52372194 138.77867267 -93 138 C-93.042721 136.33388095 -93.04063832 134.66617115 -93 133 C-92.67 132.67 -92.34 132.34 -92 132 C-84.97983794 132.34510499 -80.01855864 135.47247502 -74.05273438 138.9375 C-73.33021484 139.34226563 -72.60769531 139.74703125 -71.86328125 140.1640625 C-70.89322144 140.72794678 -70.89322144 140.72794678 -69.90356445 141.30322266 C-67.4936741 142.18533463 -66.38626132 141.86659745 -64 141 C-61.98473831 140.03112419 -59.98166034 139.0358679 -58 138 C-58.76123169 137.60059204 -58.76123169 137.60059204 -59.5378418 137.19311523 C-89.57203994 121.42796006 -89.57203994 121.42796006 -91 120 C-91.04063832 118.33382885 -91.042721 116.66611905 -91 115 C-87.00165985 113.66281926 -84.72197974 114.2382746 -80.98779297 116.09674072 C-80.37307129 116.42059753 -79.75834961 116.74445435 -79.125 117.078125 C-78.15457764 117.5689859 -78.15457764 117.5689859 -77.16455078 118.06976318 C-75.1027791 119.11687708 -73.05165969 120.18323328 -71 121.25 C-69.62042421 121.9530655 -68.24022133 122.65490193 -66.859375 123.35546875 C-56.9245735 128.42083934 -56.9245735 128.42083934 -53.2265625 130.73730469 C-51.06196014 132.23802593 -51.06196014 132.23802593 -48.5 131.8125 C-45.94514723 130.98217285 -43.46912547 130.05819663 -41 129 C-41 128.34 -41 127.68 -41 127 C-41.68578125 126.90332031 -42.3715625 126.80664062 -43.078125 126.70703125 C-46.63910461 125.84535036 -49.51198543 124.3980801 -52.75 122.6875 C-53.89984375 122.09324219 -55.0496875 121.49898438 -56.234375 120.88671875 C-59 119 -59 119 -59.96484375 116.8828125 C-60 115 -60 115 -58.8125 113.1875 C-57 112 -57 112 -55.16918945 112.27416992 C-52.74480258 113.08539133 -50.70288489 114.16215442 -48.48046875 115.42578125 C-47.62259766 115.89177734 -46.76472656 116.35777344 -45.88085938 116.83789062 C-44.08596438 117.82059238 -42.30188235 118.82330812 -40.52929688 119.84570312 C-35.92879066 122.52670866 -35.92879066 122.52670866 -30.87353516 122.39990234 C-28.73599995 121.19692218 -28.73599995 121.19692218 -26 119 C-25.34 119 -24.68 119 -24 119 C-24 118.34 -24 117.68 -24 117 C-25.29309082 116.5968457 -25.29309082 116.5968457 -26.61230469 116.18554688 C-29.96491341 115.01227879 -33.02637475 113.61619662 -36.203125 112.03125 C-37.3478125 111.46019531 -38.4925 110.88914062 -39.671875 110.30078125 C-40.25904297 110.00510254 -40.84621094 109.70942383 -41.45117188 109.40478516 C-43.25616622 108.49689848 -45.06530841 107.59769929 -46.875 106.69921875 C-48.01453125 106.12816406 -49.1540625 105.55710937 -50.328125 104.96875 C-51.88901855 104.18661133 -51.88901855 104.18661133 -53.48144531 103.38867188 C-56 102 -56 102 -58 100 C-57.625 97.375 -57.625 97.375 -57 95 C-50.86753648 94.27208157 -46.69359412 96.79257765 -41.4375 99.5625 C-40.55505615 100.01415527 -39.6726123 100.46581055 -38.76342773 100.93115234 C-32.63699797 104.08290914 -26.59431943 107.37292326 -20.62890625 110.8203125 C-17.83877508 112.07234758 -16.0201576 112.25213657 -13 112 C-12.76216797 111.12988281 -12.76216797 111.12988281 -12.51953125 110.2421875 C-10.87150599 104.72448967 -9.02811524 101.13140024 -5 97 C-4.34 96.67 -3.68 96.34 -3 96 C-2.47687227 93.1933296 -2.47687227 93.1933296 -3 90 C-5.09699659 88.11588034 -6.85915671 86.84902001 -9.25 85.4375 C-9.90299072 85.0247583 -10.55598145 84.6120166 -11.22875977 84.18676758 C-13.473405 82.77015282 -15.73514216 81.3840544 -18 80 C-20.74412867 78.31392715 -23.48209621 76.61993548 -26.20800781 74.90454102 C-28.01046853 73.77066747 -29.82358296 72.65353524 -31.64746094 71.55444336 C-32.47407227 71.03503174 -33.30068359 70.51562012 -34.15234375 69.98046875 C-34.89476318 69.52567139 -35.63718262 69.07087402 -36.40209961 68.60229492 C-38 67 -38 67 -38.30297852 64.3762207 C-38 62 -38 62 -37 61 C-32.58116331 60.48736271 -30.32508013 61.70406776 -26.69140625 64.140625 C-25.69689453 64.79933594 -24.70238281 65.45804687 -23.67773438 66.13671875 C-22.64970703 66.83410156 -21.62167969 67.53148438 -20.5625 68.25 C-19.53833984 68.93191406 -18.51417969 69.61382812 -17.45898438 70.31640625 C-14.63236422 72.20081969 -11.81520758 74.09859864 -9 76 C-7.00187983 77.3361866 -5.00107325 78.66823941 -3 80 C-2.3226461 76.47793892 -2.15087985 73.50388421 -3 70 C-6.03369658 66.70597132 -9.65204073 64.61840483 -13.5 62.375 C-14.50160156 61.75238281 -15.50320312 61.12976562 -16.53515625 60.48828125 C-19.00560939 58.95895312 -21.49152295 57.4658198 -24 56 C-23.67 54.35 -23.34 52.7 -23 51 C-20.98828125 50.19140625 -20.98828125 50.19140625 -18 50 C-15.17479111 51.32803779 -12.71483673 53.11636645 -10.1875 54.9375 C-9.49462891 55.41896484 -8.80175781 55.90042969 -8.08789062 56.39648438 C-6.38256717 57.58433037 -4.68998846 58.79043594 -3 60 C-2.58564583 56.90564867 -2.4426072 54.08281593 -3 51 C-4.86906732 48.61632654 -7.18883162 47.33489887 -9.8125 45.875 C-10.49521973 45.45959961 -11.17793945 45.04419922 -11.88134766 44.61621094 C-13.26184504 43.77827135 -14.65022088 42.95316594 -16.04638672 42.14160156 C-18.70587342 40.58752011 -21.28771542 38.92087795 -23.875 37.25 C-26.45679951 35.60105459 -29.04033282 33.97609471 -31.67578125 32.4140625 C-32.91908203 31.65222656 -32.91908203 31.65222656 -34.1875 30.875 C-34.92355469 30.43929688 -35.65960938 30.00359375 -36.41796875 29.5546875 C-38 28 -38 28 -38.30078125 25.3828125 C-38 23 -38 23 -37 22 C-32.27578517 21.37130221 -29.79537909 23.05838237 -25.9296875 25.6484375 C-25.36678009 26.02102692 -24.80387268 26.39361633 -24.22390747 26.77749634 C-22.43359451 27.9660584 -20.65436991 29.17013301 -18.875 30.375 C-17.67127242 31.17813274 -16.46685169 31.98022761 -15.26171875 32.78125 C-12.16632251 34.84214143 -9.08212087 36.91929845 -6 39 C-4.515 39.99 -4.515 39.99 -3 41 C-2.3226461 37.47793892 -2.15087985 34.50388421 -3 31 C-6.03369658 27.70597132 -9.65204073 25.61840483 -13.5 23.375 C-14.50160156 22.75238281 -15.50320312 22.12976563 -16.53515625 21.48828125 C-19.00560939 19.95895312 -21.49152295 18.4658198 -24 17 C-23.67 15.35 -23.34 13.7 -23 12 C-20.98828125 11.19140625 -20.98828125 11.19140625 -18 11 C-15.17479111 12.32803779 -12.71483673 14.11636645 -10.1875 15.9375 C-9.14819336 16.65969727 -9.14819336 16.65969727 -8.08789062 17.39648438 C-6.38256717 18.58433037 -4.68998846 19.79043594 -3 21 C-2.98018066 20.43490723 -2.96036133 19.86981445 -2.93994141 19.28759766 C-2.84481764 16.73292003 -2.73508942 14.17907459 -2.625 11.625 C-2.5940625 10.73554688 -2.563125 9.84609375 -2.53125 8.9296875 C-2.49257812 8.07890625 -2.45390625 7.228125 -2.4140625 6.3515625 C-2.36693115 5.17327881 -2.36693115 5.17327881 -2.31884766 3.97119141 C-2 2 -2 2 0 0 Z " fill="#08B0EF" transform="translate(97,0)"/>
<path d="M0 0 C4.55555556 0.55555556 4.55555556 0.55555556 6 2 C6.08775605 4.14558827 6.10695219 6.29404421 6.09765625 8.44140625 C6.09443359 9.74658203 6.09121094 11.05175781 6.08789062 12.39648438 C6.07953401 13.7851569 6.07106905 15.17382877 6.0625 16.5625 C6.05748666 17.95507656 6.05292347 19.34765481 6.04882812 20.74023438 C6.03699434 24.1601987 6.0205088 27.58007844 6 31 C7.0832959 31.4007373 7.0832959 31.4007373 8.18847656 31.80957031 C11.00728388 33.00308407 13.41037927 34.395203 15.984375 36.046875 C16.92023438 36.645 17.85609375 37.243125 18.8203125 37.859375 C19.78710938 38.48328125 20.75390625 39.1071875 21.75 39.75 C22.70132813 40.3584375 23.65265625 40.966875 24.6328125 41.59375 C26.51867933 42.80277147 28.3996527 44.01946359 30.27539062 45.24414062 C32.06703676 46.39875702 33.87824876 47.52365661 35.70898438 48.61523438 C36.53205078 49.11861328 37.35511719 49.62199219 38.203125 50.140625 C38.93692383 50.57407227 39.67072266 51.00751953 40.42675781 51.45410156 C42 53 42 53 42.29980469 55.61621094 C42 58 42 58 41 59 C35.00488102 58.70700546 31.57162814 56.82697395 26.875 53.4375 C25.57041892 52.53052275 24.264399 51.625612 22.95703125 50.72265625 C22.30299316 50.26777832 21.64895508 49.81290039 20.97509766 49.34423828 C17.90022479 47.25150033 14.74034317 45.30646486 11.5625 43.375 C10.49128906 42.72273438 9.42007813 42.07046875 8.31640625 41.3984375 C7.55199219 40.93695313 6.78757813 40.47546875 6 40 C4.98529677 44.54161527 5.11677948 47.71519775 7 52 C12.33271582 56.75948804 18.80853731 60.15532363 25.06640625 63.54296875 C27 65 27 65 27.83984375 67.05078125 C28 69 28 69 27 71 C21.19035942 71.64352942 18.19863476 69.67958325 13.625 66.5 C12.98433594 66.07074219 12.34367187 65.64148438 11.68359375 65.19921875 C10.11409022 64.14507459 8.5558583 63.07418162 7 62 C6.98018066 62.62044189 6.96036133 63.24088379 6.93994141 63.88012695 C6.84468155 66.69134537 6.73500698 69.50182166 6.625 72.3125 C6.5940625 73.28896484 6.563125 74.26542969 6.53125 75.27148438 C6.49257812 76.20927734 6.45390625 77.14707031 6.4140625 78.11328125 C6.3826416 78.97735596 6.3512207 79.84143066 6.31884766 80.73168945 C6 83 6 83 4 86 C-0.875 85.125 -0.875 85.125 -2 84 C-2.15714654 82.36743242 -2.25085414 80.72864662 -2.31640625 79.08984375 C-2.37924805 77.60581055 -2.37924805 77.60581055 -2.44335938 76.09179688 C-2.48267578 75.05087891 -2.52199219 74.00996094 -2.5625 72.9375 C-2.60568359 71.89271484 -2.64886719 70.84792969 -2.69335938 69.77148438 C-2.79981225 67.18113116 -2.9018276 64.59067814 -3 62 C-3.94101563 62.6496875 -4.88203125 63.299375 -5.8515625 63.96875 C-7.10888948 64.81322334 -8.36672937 65.65693336 -9.625 66.5 C-10.55119141 67.14388672 -10.55119141 67.14388672 -11.49609375 67.80078125 C-15.47658283 70.44047401 -18.06474584 71.54667431 -23 71 C-23.495 68.525 -23.495 68.525 -24 66 C-22.56488934 64.9758104 -21.12671309 63.95591673 -19.6875 62.9375 C-18.78515625 62.29039062 -17.8828125 61.64328125 -16.953125 60.9765625 C-14 59 -14 59 -10.921875 57.3984375 C-7.89905711 55.79207093 -5.45520141 54.39315661 -3 52 C-1.80332321 47.92925332 -1.70241756 44.21459777 -2 40 C-4.75267824 41.66227197 -7.50189811 43.33017391 -10.25 45 C-11.06815186 45.49604736 -11.88630371 45.99209473 -12.72924805 46.50317383 C-18.48434737 50.01411793 -24.04740805 53.6964742 -29.51953125 57.63671875 C-32.29052659 59.15967524 -33.88662109 59.3749095 -37 59 C-38 58 -38 58 -38.30517578 55.62597656 C-38 53 -38 53 -36.38623047 51.38183594 C-35.63744629 50.92067383 -34.88866211 50.45951172 -34.1171875 49.984375 C-33.28558105 49.45932373 -32.45397461 48.93427246 -31.59716797 48.39331055 C-30.69885254 47.85101807 -29.80053711 47.30872559 -28.875 46.75 C-27.97023926 46.18514893 -27.06547852 45.62029785 -26.13330078 45.03833008 C-24.29859724 43.8929801 -22.45988825 42.75402082 -20.6171875 41.62158203 C-18.26370239 40.16338725 -15.93869983 38.67260485 -13.625 37.15234375 C-12.98449707 36.73178711 -12.34399414 36.31123047 -11.68408203 35.87792969 C-11.08708496 35.48508789 -10.49008789 35.09224609 -9.875 34.6875 C-4.24775583 31 -4.24775583 31 -2 31 C-2.01571045 29.69796631 -2.01571045 29.69796631 -2.03173828 28.36962891 C-2.06579716 25.15300472 -2.09088767 21.93647233 -2.10986328 18.71972656 C-2.11992877 17.32679219 -2.13358234 15.93387898 -2.15087891 14.54101562 C-2.1751022 12.5404564 -2.18540814 10.53974385 -2.1953125 8.5390625 C-2.21102295 6.73236084 -2.21102295 6.73236084 -2.22705078 4.88916016 C-2 2 -2 2 0 0 Z " fill="#0BB0EF" transform="translate(97,130)"/>
<path d="M0 0 C4.55555556 0.55555556 4.55555556 0.55555556 6 2 C6.01677372 3.54600892 5.96261575 5.09288662 5.87890625 6.63671875 C5.83048584 7.60085693 5.78206543 8.56499512 5.73217773 9.55834961 C5.64818726 11.10727905 5.64818726 11.10727905 5.5625 12.6875 C5.12749549 21.47268498 4.86278092 30.20273239 5 39 C8.51000502 37.84967726 11.27368189 36.52108412 14 34 C15.41186442 29.62261695 15.4407212 25.32434756 15.5 20.75 C15.59135485 18.36969854 15.68497599 15.98948258 15.78125 13.609375 C15.80251953 12.55717773 15.82378906 11.50498047 15.84570312 10.42089844 C16 8 16 8 17 7 C18.98 7 20.96 7 23 7 C23.495 17.395 23.495 17.395 24 28 C29.04489292 25.09086308 29.04489292 25.09086308 34.08081055 22.16625977 C41.10318891 18.16628322 41.10318891 18.16628322 45 18 C47 20 47 20 47.15234375 22.29296875 C45.30083625 26.64244231 41.58952627 28.10434181 37.5625 30.3125 C36.37817383 30.9940918 36.37817383 30.9940918 35.16992188 31.68945312 C29.33041588 35 29.33041588 35 27 35 C27 35.66 27 36.32 27 37 C27.763125 37.20625 28.52625 37.4125 29.3125 37.625 C34.4268842 39.53205851 41.08008383 42.08008383 45 46 C45.04063832 47.66617115 45.042721 49.33388095 45 51 C42.20114334 51.79677501 40.55308156 52.20468709 37.78344727 51.1796875 C36.68601196 50.53386719 36.68601196 50.53386719 35.56640625 49.875 C34.75236328 49.41609375 33.93832031 48.9571875 33.09960938 48.484375 C31.41111238 47.49649377 29.72360721 46.5069153 28.03710938 45.515625 C23.1968772 42.75526351 23.1968772 42.75526351 17.77734375 41.9375 C14.49297223 43.19396843 11.89464852 45.01972737 9 47 C9.9286084 47.47421387 10.8572168 47.94842773 11.81396484 48.43701172 C15.25622532 50.196156 18.69587935 51.96034422 22.13476562 53.72607422 C23.62396683 54.4898254 25.11387289 55.25220383 26.60449219 56.01318359 C28.74600694 57.10675338 30.88494466 58.20522253 33.0234375 59.3046875 C33.69120209 59.6443454 34.35896667 59.9840033 35.04696655 60.33395386 C37.69900075 61.70243329 39.87587515 62.87587515 42 65 C41.625 67.625 41.625 67.625 41 70 C34.9366657 70.71047095 31.05510357 68.29296703 25.9375 65.4375 C24.68211426 64.76110474 24.68211426 64.76110474 23.40136719 64.07104492 C19.604094 62.01910453 15.83989176 59.91973188 12.11328125 57.7421875 C11.00339844 57.10539062 9.89351562 56.46859375 8.75 55.8125 C7.31914062 54.95591797 7.31914062 54.95591797 5.859375 54.08203125 C1.97582359 52.61243598 0.01597821 52.89864206 -4 54 C-8.24573627 56.13199286 -12.21723047 58.70115248 -16.23632812 61.2265625 C-17.04908203 61.7215625 -17.86183594 62.2165625 -18.69921875 62.7265625 C-19.42971436 63.18627441 -20.16020996 63.64598633 -20.9128418 64.11962891 C-23.40259891 65.16981772 -24.50948594 64.92371344 -27 64 C-27.33 62.35 -27.66 60.7 -28 59 C-23.87796802 56.12112052 -19.71686794 53.36868956 -15.3203125 50.92578125 C-14.68947754 50.57515625 -14.05864258 50.22453125 -13.40869141 49.86328125 C-12.14725089 49.16882743 -10.88132419 48.48245429 -9.61083984 47.8046875 C-5.81317158 45.80465929 -5.81317158 45.80465929 -4 42 C-3.80035425 39.00531373 -3.64869842 36.02539143 -3.53515625 33.02734375 C-3.45667259 31.22329455 -3.37788742 29.41925844 -3.29882812 27.61523438 C-3.17888781 24.76893008 -3.0619156 21.92257667 -2.95043945 19.07592773 C-2.84115798 16.33014177 -2.72020669 13.58506493 -2.59765625 10.83984375 C-2.56736832 9.98462631 -2.53708038 9.12940887 -2.50587463 8.24827576 C-2.22677752 2.22677752 -2.22677752 2.22677752 0 0 Z " fill="#08B0EF" transform="translate(146,34)"/>
<path d="M0 0 C4.55555556 0.55555556 4.55555556 0.55555556 6 2 C6.21960769 4.91857093 6.37956046 7.81903079 6.5 10.7421875 C6.54060547 11.62149933 6.58121094 12.50081116 6.62304688 13.4067688 C6.75318947 16.22933022 6.87724473 19.05210824 7 21.875 C7.16176105 25.58097085 7.32925336 29.28662115 7.5 32.9921875 C7.53544922 33.84851776 7.57089844 34.70484802 7.60742188 35.58712769 C7.64416016 36.38450348 7.68089844 37.18187927 7.71875 38.00341797 C7.74904297 38.70433563 7.77933594 39.4052533 7.81054688 40.12741089 C7.95385345 42.22677567 7.95385345 42.22677567 9 45 C11.17313237 46.5459386 11.17313237 46.5459386 13.875 47.9609375 C14.85984375 48.51523438 15.8446875 49.06953125 16.859375 49.640625 C18.94982746 50.79505397 21.04358432 51.94351982 23.140625 53.0859375 C24.61789063 53.92125 24.61789063 53.92125 26.125 54.7734375 C27.49011719 55.52246338 27.49011719 55.52246338 28.8828125 56.28662109 C31 58 31 58 31.9296875 60.57666016 C31.95289062 61.3763623 31.97609375 62.17606445 32 63 C31.34 63.66 30.68 64.32 30 65 C26.13146691 64.66749731 23.52462024 63.30851446 20.3125 61.20703125 C19.44882813 60.65982422 18.58515625 60.11261719 17.6953125 59.54882812 C15.8930833 58.38782685 14.09620252 57.21848238 12.3046875 56.04101562 C11.44101562 55.49767578 10.57734375 54.95433594 9.6875 54.39453125 C8.51767578 53.63426636 8.51767578 53.63426636 7.32421875 52.85864258 C5.02134668 51.75458099 5.02134668 51.75458099 2.6640625 52.61938477 C1.34535156 53.30278931 1.34535156 53.30278931 0 54 C-1.69576172 54.83942139 -1.69576172 54.83942139 -3.42578125 55.69580078 C-4.72212234 56.36080937 -6.01765596 57.02739367 -7.3125 57.6953125 C-8.73152668 58.41844806 -10.15080525 59.14108951 -11.5703125 59.86328125 C-13.79125168 60.99539934 -16.01048872 62.13041464 -18.22558594 63.27392578 C-20.37498066 64.38195448 -22.53054163 65.47709707 -24.6875 66.5703125 C-25.34596924 66.91401886 -26.00443848 67.25772522 -26.68286133 67.61184692 C-30.2671769 69.41435698 -32.97078191 70.42275974 -37 70 C-37.495 67.525 -37.495 67.525 -38 65 C-31.15430746 60.12100762 -23.98181934 56.30848322 -16.4375 52.625 C-14.78137695 51.80708984 -14.78137695 51.80708984 -13.09179688 50.97265625 C-10.39721326 49.64286174 -7.69997915 48.31879536 -5 47 C-10.01223764 43.22643177 -10.01223764 43.22643177 -15.96484375 41.8984375 C-20.8917454 43.68657941 -25.29503471 46.30116275 -29.81054688 48.9375 C-35.37112153 52.04706445 -35.37112153 52.04706445 -39.02734375 51.7734375 C-40.00380859 51.39058594 -40.00380859 51.39058594 -41 51 C-41.5 48.8125 -41.5 48.8125 -41 46 C-38.58090312 43.89588969 -35.83231595 42.47856494 -33 41 C-32.26007812 40.60296875 -31.52015625 40.2059375 -30.7578125 39.796875 C-25.38072183 37 -25.38072183 37 -23 37 C-23 36.34 -23 35.68 -23 35 C-24.01320313 34.62294922 -24.01320313 34.62294922 -25.046875 34.23828125 C-28.56934441 32.76126696 -31.90867296 31.02800276 -35.25 29.1875 C-35.88679688 28.85685547 -36.52359375 28.52621094 -37.1796875 28.18554688 C-40.13230325 26.54904389 -41.77953007 25.55528806 -43.046875 22.36328125 C-43 20 -43 20 -41 18 C-36.00305525 18.2132277 -31.89467785 21.10806257 -27.6875 23.5625 C-25.150625 25.026875 -22.61375 26.49125 -20 28 C-19.67 21.07 -19.34 14.14 -19 7 C-17.35 6.67 -15.7 6.34 -14 6 C-11.34047506 8.65952494 -11.74043115 9.99546348 -11.68359375 13.70703125 C-11.64041016 14.85107422 -11.59722656 15.99511719 -11.55273438 17.17382812 C-11.47630484 19.58718771 -11.426544 22.0015486 -11.40429688 24.41601562 C-11.31606234 30.85241208 -11.31606234 30.85241208 -7.90283203 35.93896484 C-5.63217742 37.20083499 -3.46505819 38.19023607 -1 39 C-0.89585685 32.32326674 -0.9423613 25.68739001 -1.29296875 19.01953125 C-1.34654541 17.98578369 -1.40012207 16.95203613 -1.45532227 15.88696289 C-1.5678696 13.80621364 -1.68936197 11.72592775 -1.82006836 9.64624023 C-1.87171143 8.68532471 -1.92335449 7.72440918 -1.9765625 6.734375 C-2.02893066 5.87038086 -2.08129883 5.00638672 -2.13525391 4.11621094 C-2 2 -2 2 0 0 Z " fill="#07B0EF" transform="translate(48,34)"/>
</svg>
