<?xml version="1.0" encoding="UTF-8"?>
<svg version="1.1" xmlns="http://www.w3.org/2000/svg" width="200" height="216">
<path d="M0 0 C66 0 132 0 200 0 C200 71.28 200 142.56 200 216 C134 216 68 216 0 216 C0 144.72 0 73.44 0 0 Z " fill="none" transform="translate(0,0)"/>
<path d="M0 0 C2.64 0 5.28 0 8 0 C8 3.3 8 6.6 8 10 C11.3 10 14.6 10 18 10 C18 12.97 18 15.94 18 19 C14.7 19 11.4 19 8 19 C8 23.29 8 27.58 8 32 C15.59 32 23.18 32 31 32 C31 34.97 31 37.94 31 41 C23.41 41 15.82 41 8 41 C8 45.29 8 49.58 8 54 C13.28 54 18.56 54 24 54 C24 56.97 24 59.94 24 63 C18.72 63 13.44 63 8 63 C8 66.63 8 70.26 8 74 C8.825 74.0825 9.65 74.165 10.5 74.25 C17.39288551 75.72704689 22.3467636 78.76510905 27 84 C30.40312738 82.94124926 33.01353231 81.99097846 36 80 C34.87367671 76.90261095 33.5297213 74.17365478 31.8125 71.375 C31.214375 70.26125 30.61625 69.1475 30 68 C31.25125384 64.24623848 32.5652404 63.75926711 36 62 C36.66 62 37.32 62 38 62 C39.28406399 63.95224208 40.47941678 65.96340762 41.625 68 C42.25664062 69.11375 42.88828125 70.2275 43.5390625 71.375 C44.26222656 72.674375 44.26222656 72.674375 45 74 C48.3 72.35 51.6 70.7 55 69 C53.31372605 63.27351638 50.51761452 58.73247203 47.36328125 53.70703125 C46.91339844 52.81371094 46.46351563 51.92039063 46 51 C47 48 47 48 48.8125 46.75 C51.43516974 45.85079895 52.43556105 46.01576111 55 47 C56.28027344 48.58227539 56.28027344 48.58227539 57.359375 50.59765625 C57.75253906 51.31630859 58.14570313 52.03496094 58.55078125 52.77539062 C58.94652344 53.53013672 59.34226563 54.28488281 59.75 55.0625 C60.16121094 55.82111328 60.57242188 56.57972656 60.99609375 57.36132812 C62.00926383 59.23451468 63.0062056 61.11646233 64 63 C67.3 61.35 70.6 59.7 74 58 C73.67 56.68 73.34 55.36 73 54 C72.65939189 52.33480481 72.32441604 50.66842534 72 49 C74.31 47.68 76.62 46.36 79 45 C80.32 47.31 81.64 49.62 83 52 C83.721875 51.71125 84.44375 51.4225 85.1875 51.125 C87.79166667 50.08333333 90.39583333 49.04166667 93 48 C96 52.32 96 52.32 96 55.125 C94.5645213 57.81652256 92.69724019 58.68427308 90 60 C89.34 60 88.68 60 88 60 C88.680625 61.093125 89.36125 62.18625 90.0625 63.3125 C91.22265625 65.17578125 91.22265625 65.17578125 92 67 C90.74874616 70.75376152 89.4347596 71.24073289 86 73 C85.34 73 84.68 73 84 73 C81 68.61538462 81 68.61538462 81 66 C80.30132812 66.3609375 79.60265625 66.721875 78.8828125 67.09375 C77.97273437 67.5578125 77.06265625 68.021875 76.125 68.5 C75.22007812 68.9640625 74.31515625 69.428125 73.3828125 69.90625 C71 71 71 71 69 71 C69.91573538 72.68800555 70.83264074 74.37537641 71.75 76.0625 C72.29140625 77.06539063 72.8328125 78.06828125 73.390625 79.1015625 C74.69030889 81.44225532 76.0621867 83.68229969 77.5 85.9375 C79 89 79 89 78.4375 91.3125 C77 93 77 93 74 95 C73.01 95 72.02 95 71 95 C69.49480613 92.37785672 67.99568681 89.75255792 66.5 87.125 C65.85611328 86.00544922 65.85611328 86.00544922 65.19921875 84.86328125 C64.79316406 84.14785156 64.38710937 83.43242188 63.96875 82.6953125 C63.59169922 82.03547363 63.21464844 81.37563477 62.82617188 80.69580078 C62 79 62 79 62 77 C61.30132812 77.3609375 60.60265625 77.721875 59.8828125 78.09375 C58.97273437 78.5578125 58.06265625 79.021875 57.125 79.5 C56.22007812 79.9640625 55.31515625 80.428125 54.3828125 80.90625 C52 82 52 82 50 82 C50.42152344 82.83144531 50.84304687 83.66289063 51.27734375 84.51953125 C51.82519531 85.60621094 52.37304688 86.69289063 52.9375 87.8125 C53.48277344 88.89144531 54.02804688 89.97039062 54.58984375 91.08203125 C56 94 56 94 57 97 C52.63636364 100.03030303 52.63636364 100.03030303 50.03125 99.90625 C47.09700485 98.59712524 46.29421712 96.71007164 44.75 93.9375 C43.96882813 92.55884766 43.96882813 92.55884766 43.171875 91.15234375 C42.78515625 90.44207031 42.3984375 89.73179688 42 89 C37.92035719 90.30155006 37.92035719 90.30155006 34 92 C34 99.92 34 107.84 34 116 C35.98 116.99 37.96 117.98 40 119 C43.82053924 117.72648692 44.23021375 116.37362475 46.1875 112.9375 C46.71730469 112.01839844 47.24710938 111.09929687 47.79296875 110.15234375 C48.39044922 109.08693359 48.39044922 109.08693359 49 108 C51.91985181 108.68088981 54.35122304 109.58101234 57 111 C55.63408831 114.54243452 54.09068516 117.92627929 52.375 121.3125 C51.70597656 122.63701172 51.70597656 122.63701172 51.0234375 123.98828125 C50.68570313 124.65214844 50.34796875 125.31601563 50 126 C50.74636719 126.29648438 51.49273437 126.59296875 52.26171875 126.8984375 C55.53180203 128.21393463 58.76359877 129.60390535 62 131 C62.25523437 130.31550781 62.51046875 129.63101563 62.7734375 128.92578125 C64.18849108 125.55038274 65.87258566 122.40025962 67.625 119.1875 C67.94984375 118.59001953 68.2746875 117.99253906 68.609375 117.37695312 C69.40379151 115.91662865 70.20155376 114.45812509 71 113 C76.75 114.875 76.75 114.875 79 116 C78.4527072 120.56647432 76.46510576 123.8497681 74 127.625 C71.09316341 132.10082871 71.09316341 132.10082871 69 137 C69.680625 137.268125 70.36125 137.53625 71.0625 137.8125 C74.39710809 139.16053306 77.69743237 140.57536298 81 142 C81.309375 141.21625 81.61875 140.4325 81.9375 139.625 C83 137 83 137 84 135 C86.9719385 136.12451727 89.33440687 137.22293791 92 139 C90.80100302 142.0831351 89.52299523 145.06279492 88 148 C88.763125 148.28875 89.52625 148.5775 90.3125 148.875 C93 150 93 150 96 152 C94.125 157.75 94.125 157.75 93 160 C89.66666667 158.66666667 86.33333333 157.33333333 83 156 C81.68 158.31 80.36 160.62 79 163 C76.69 161.68 74.38 160.36 72 159 C72.58929011 155.96936513 73.25044562 152.9982175 74 150 C70.7 148.35 67.4 146.7 64 145 C60.7 150.61 57.4 156.22 54 162 C49 161 49 161 46 159 C47.33953481 154.48076133 49.17200704 150.76765925 51.625 146.75 C54.11642107 143.11728421 54.11642107 143.11728421 55 139 C51.7 137.35 48.4 135.7 45 134 C42.69 137.96 40.38 141.92 38 146 C33 144 33 144 30 142 C31.12188841 138.91480689 32.4616463 136.13194351 34.125 133.3125 C36.16419941 130.34430563 36.16419941 130.34430563 36 128 C33.65607711 126.46743503 31.55145803 125.10138861 29 124 C25.97897147 124.64082423 24.53791997 126.40046936 22.1875 128.4375 C17.8823217 132.12142473 13.76723023 134 8 134 C8 137.63 8 141.26 8 145 C13.28 145 18.56 145 24 145 C24 147.97 24 150.94 24 154 C18.72 154 13.44 154 8 154 C8 158.29 8 162.58 8 167 C15.59 167 23.18 167 31 167 C31 169.97 31 172.94 31 176 C23.41 176 15.82 176 8 176 C8 180.29 8 184.58 8 189 C10.97 189 13.94 189 17 189 C17 191.97 17 194.94 17 198 C14.03 198 11.06 198 8 198 C8 201.3 8 204.6 8 208 C5.36 208 2.72 208 0 208 C0 204.7 0 201.4 0 198 C-2.97 198 -5.94 198 -9 198 C-9 195.03 -9 192.06 -9 189 C-6.03 189 -3.06 189 0 189 C0 184.71 0 180.42 0 176 C-7.59 176 -15.18 176 -23 176 C-23 173.03 -23 170.06 -23 167 C-15.41 167 -7.82 167 0 167 C0 162.71 0 158.42 0 154 C-5.28 154 -10.56 154 -16 154 C-16 151.03 -16 148.06 -16 145 C-10.72 145 -5.44 145 0 145 C0 141.37 0 137.74 0 134 C-0.99 133.938125 -1.98 133.87625 -3 133.8125 C-9.43843021 132.89832127 -14.76217695 128.76755093 -19 124 C-22.40312738 125.05875074 -25.01353231 126.00902154 -28 128 C-26.87367671 131.09738905 -25.5297213 133.82634522 -23.8125 136.625 C-23.214375 137.73875 -22.61625 138.8525 -22 140 C-23.25125384 143.75376152 -24.5652404 144.24073289 -28 146 C-28.66 146 -29.32 146 -30 146 C-31.28406399 144.04775792 -32.47941678 142.03659238 -33.625 140 C-34.25664063 138.88625 -34.88828125 137.7725 -35.5390625 136.625 C-36.02117188 135.75875 -36.50328125 134.8925 -37 134 C-40.3 135.65 -43.6 137.3 -47 139 C-45.31372605 144.72648362 -42.51761452 149.26752797 -39.36328125 154.29296875 C-38.91339844 155.18628906 -38.46351562 156.07960937 -38 157 C-39 160 -39 160 -42.0625 161.6875 C-43.031875 162.120625 -44.00125 162.55375 -45 163 C-45.53109375 162.11957031 -46.0621875 161.23914063 -46.609375 160.33203125 C-47.32273415 159.15874318 -48.0362861 157.98557231 -48.75 156.8125 C-49.09804688 156.23435547 -49.44609375 155.65621094 -49.8046875 155.06054688 C-51.98169747 151.49266943 -54.31952362 148.20570486 -57 145 C-59.97 146.65 -62.94 148.3 -66 150 C-65.34 152.97 -64.68 155.94 -64 159 C-67.465 160.98 -67.465 160.98 -71 163 C-72.98 159.535 -72.98 159.535 -75 156 C-75.721875 156.28875 -76.44375 156.5775 -77.1875 156.875 C-79.79166667 157.91666667 -82.39583333 158.95833333 -85 160 C-86.5625 157.1875 -86.5625 157.1875 -88 154 C-86.74874616 150.24623848 -85.4347596 149.75926711 -82 148 C-81.34 148 -80.68 148 -80 148 C-80.680625 146.906875 -81.36125 145.81375 -82.0625 144.6875 C-83.22265625 142.82421875 -83.22265625 142.82421875 -84 141 C-82.74874616 137.24623848 -81.4347596 136.75926711 -78 135 C-77.34 135 -76.68 135 -76 135 C-73 139.38461538 -73 139.38461538 -73 142 C-72.30132812 141.6390625 -71.60265625 141.278125 -70.8828125 140.90625 C-69.97273438 140.4421875 -69.06265625 139.978125 -68.125 139.5 C-67.22007813 139.0359375 -66.31515625 138.571875 -65.3828125 138.09375 C-63 137 -63 137 -61 137 C-61.91573538 135.31199445 -62.83264074 133.62462359 -63.75 131.9375 C-64.29398438 130.93589844 -64.83796875 129.93429688 -65.3984375 128.90234375 C-66.68397187 126.57270464 -68.01002975 124.2831337 -69.375 122 C-71 119 -71 119 -71 116 C-68.11165997 113.89229241 -66.61537605 113 -63 113 C-61.49480613 115.62214328 -59.99568681 118.24744208 -58.5 120.875 C-58.07074219 121.62136719 -57.64148438 122.36773437 -57.19921875 123.13671875 C-56.79316406 123.85214844 -56.38710938 124.56757813 -55.96875 125.3046875 C-55.40317383 126.2944458 -55.40317383 126.2944458 -54.82617188 127.30419922 C-54 129 -54 129 -54 131 C-52.95199219 130.45859375 -52.95199219 130.45859375 -51.8828125 129.90625 C-50.97273438 129.4421875 -50.06265625 128.978125 -49.125 128.5 C-48.22007813 128.0359375 -47.31515625 127.571875 -46.3828125 127.09375 C-44 126 -44 126 -42 126 C-42.42152344 125.16855469 -42.84304687 124.33710938 -43.27734375 123.48046875 C-43.82519531 122.39378906 -44.37304688 121.30710937 -44.9375 120.1875 C-45.48277344 119.10855469 -46.02804688 118.02960938 -46.58984375 116.91796875 C-48 114 -48 114 -49 111 C-44.63636364 107.96969697 -44.63636364 107.96969697 -42.03125 108.09375 C-39.09700485 109.40287476 -38.29421712 111.28992836 -36.75 114.0625 C-35.96882813 115.44115234 -35.96882813 115.44115234 -35.171875 116.84765625 C-34.78515625 117.55792969 -34.3984375 118.26820312 -34 119 C-33.071875 118.690625 -32.14375 118.38125 -31.1875 118.0625 C-29.125 117.375 -27.0625 116.6875 -25 116 C-25.16242188 115.505 -25.32484375 115.01 -25.4921875 114.5 C-26.20207523 111.00516809 -26.14429118 107.54957763 -26.125 104 C-26.13080078 102.93265625 -26.13080078 102.93265625 -26.13671875 101.84375 C-26.13033978 98.42461983 -26.07200732 95.26706994 -25 92 C-25.721875 91.71125 -26.44375 91.4225 -27.1875 91.125 C-29.79166667 90.08333333 -32.39583333 89.04166667 -35 88 C-35.2475 88.86625 -35.495 89.7325 -35.75 90.625 C-37.06778613 94.18302254 -38.80186822 96.9226155 -41 100 C-44.37462715 99.45276317 -46.08235 98.9451 -49 97 C-47.63408831 93.45756548 -46.09068516 90.07372071 -44.375 86.6875 C-43.70597656 85.36298828 -43.70597656 85.36298828 -43.0234375 84.01171875 C-42.68570313 83.34785156 -42.34796875 82.68398437 -42 82 C-42.74636719 81.70351562 -43.49273437 81.40703125 -44.26171875 81.1015625 C-47.53180203 79.78606537 -50.76359877 78.39609465 -54 77 C-54.38285156 78.02673828 -54.38285156 78.02673828 -54.7734375 79.07421875 C-56.18849108 82.44961726 -57.87258566 85.59974038 -59.625 88.8125 C-59.94984375 89.40998047 -60.2746875 90.00746094 -60.609375 90.62304688 C-61.40379151 92.08337135 -62.20155376 93.54187491 -63 95 C-66.34430737 94.27633685 -68.34262343 93.18284504 -71 91 C-69.70341646 86.58900976 -67.98763304 83.12971376 -65.4375 79.3125 C-63.5543264 76.48186691 -62.07671842 74.23015525 -61 71 C-61.680625 70.731875 -62.36125 70.46375 -63.0625 70.1875 C-66.39710809 68.83946694 -69.69743237 67.42463702 -73 66 C-73.309375 66.78375 -73.61875 67.5675 -73.9375 68.375 C-75 71 -75 71 -76 73 C-78.9719385 71.87548273 -81.33440687 70.77706209 -84 69 C-82.80100302 65.9168649 -81.52299523 62.93720508 -80 60 C-81.1446875 59.566875 -81.1446875 59.566875 -82.3125 59.125 C-85 58 -85 58 -88 56 C-87.37240135 53.07120629 -86.41377341 50.63904371 -85 48 C-81.66666667 49.33333333 -78.33333333 50.66666667 -75 52 C-73.68 49.69 -72.36 47.38 -71 45 C-68.69 46.32 -66.38 47.64 -64 49 C-64.58929011 52.03063487 -65.25044562 55.0017825 -66 58 C-62.7 59.65 -59.4 61.3 -56 63 C-52.7 57.39 -49.4 51.78 -46 46 C-41 47 -41 47 -38 49 C-39.33953481 53.51923867 -41.17200704 57.23234075 -43.625 61.25 C-46.11642107 64.88271579 -46.11642107 64.88271579 -47 69 C-43.7 70.65 -40.4 72.3 -37 74 C-34.69 70.04 -32.38 66.08 -30 62 C-25 64 -25 64 -22 66 C-23.12188841 69.08519311 -24.4616463 71.86805649 -26.125 74.6875 C-28.16419941 77.65569437 -28.16419941 77.65569437 -28 80 C-26.9275 80.70125 -25.855 81.4025 -24.75 82.125 C-24.14671875 82.51945312 -23.5434375 82.91390625 -22.921875 83.3203125 C-20.98973859 84.22920419 -20.98973859 84.22920419 -19.01171875 83.3046875 C-16.93855639 81.96015113 -14.99942016 80.53419418 -13.0625 79 C-8.64946788 75.64314811 -5.64887055 74 0 74 C0 70.37 0 66.74 0 63 C-5.28 63 -10.56 63 -16 63 C-16 60.03 -16 57.06 -16 54 C-10.72 54 -5.44 54 0 54 C0 49.71 0 45.42 0 41 C-7.59 41 -15.18 41 -23 41 C-23 38.03 -23 35.06 -23 32 C-15.41 32 -7.82 32 0 32 C0 27.71 0 23.42 0 19 C-3.3 19 -6.6 19 -10 19 C-10 16.03 -10 13.06 -10 10 C-6.7 10 -3.4 10 0 10 C0 6.7 0 3.4 0 0 Z " fill="#07AFEF" transform="translate(96,4)"/>
<path d="M0 0 C4.98669007 2.49334503 8.49675474 5.99350949 11 11 C11.54360446 15.95482094 11.56437074 19.87125852 9.3125 24.375 C6.14745126 27.96775803 2.78798338 31.69412413 -2.171875 32.23828125 C-8.01846537 32.40659218 -11.43192863 32.02425335 -16 28 C-20.39893104 23.00661882 -21.35676337 20.08984773 -21.28125 13.5390625 C-20.73016315 8.56397287 -17.99302299 5.87480597 -14.375 2.6875 C-9.71860985 -0.62098774 -5.60468123 -0.62082623 0 0 Z " fill="#04AEEF" transform="translate(105,92)"/>
<path d="M0 0 C5.31691477 3.64156307 8.49913724 8.9974138 9.78515625 15.22265625 C10.06002769 21.5007199 8.32531711 27.05379519 4.78515625 32.22265625 C0.1108916 37.00315419 -4.94435227 39.9914513 -11.66796875 40.35546875 C-19.16782757 39.96437182 -24.2751679 37.1623321 -29.52734375 31.91015625 C-33.32172797 25.86724805 -34.8702352 20.8531393 -33.85546875 13.68359375 C-32.25449294 7.53350374 -28.58877154 2.596983 -23.21484375 -0.77734375 C-15.25514805 -4.97586456 -7.80966134 -4.33180023 0 0 Z M-25.52734375 8.84765625 C-28.83583149 13.5040464 -28.83566998 17.61797502 -28.21484375 23.22265625 C-25.72149872 28.20934632 -22.22133426 31.71941099 -17.21484375 34.22265625 C-12.26002281 34.76626071 -8.34358523 34.78702699 -3.83984375 32.53515625 C-0.24708572 29.37010751 3.47928038 26.01063963 4.0234375 21.05078125 C4.19174843 15.20419088 3.8094096 11.79072762 -0.21484375 7.22265625 C-5.20822493 2.82372521 -8.12499602 1.86589288 -14.67578125 1.94140625 C-19.65087088 2.4924931 -22.34003778 5.22963326 -25.52734375 8.84765625 Z " fill="white" transform="translate(112.21484375,89.77734375)"/>
</svg>
