<svg version="1.1" id="Layer_1" xmlns="http://www.w3.org/2000/svg" xmlns:xlink="http://www.w3.org/1999/xlink" x="0px" y="0px"
	 width="100%" viewBox="0 0 8000 8000" enable-background="new 0 0 8000 8000" xml:space="preserve">
<path fill="none" opacity="1.000000" stroke="none" 
	d="
M4392.000000,8004.000000 
	C2928.000000,8004.000000 1466.000000,8004.000000 4.000000,8004.000000 
	C4.000000,5337.333496 4.000000,2670.666748 4.000000,4.000001 
	C2670.666748,4.000001 5337.333496,4.000001 8004.000000,4.000000 
	C8004.000000,2670.666748 8004.000000,5337.333496 8004.000000,8004.000000 
	C6800.666504,8004.000000 5597.333496,8004.000000 4392.000000,8004.000000 
M5724.376465,3460.661377 
	C5723.692383,3458.089844 5723.123047,3455.481445 5722.308105,3452.951904 
	C5685.425781,3338.443604 5637.462891,3228.761230 5578.367676,3123.992432 
	C5487.662598,2963.182617 5375.234863,2819.410889 5240.484375,2693.054199 
	C5135.958496,2595.039062 5021.630859,2510.426025 4897.118164,2439.576660 
	C4769.717285,2367.083496 4635.416016,2311.101074 4494.208496,2271.706787 
	C4395.865723,2244.270996 4295.975586,2225.324463 4194.354980,2214.952148 
	C4136.626465,2209.060059 4078.788574,2206.270264 4020.853516,2205.173340 
	C3994.908691,2204.681885 3968.925781,2206.519531 3942.954590,2207.003906 
	C3902.291748,2207.762451 3861.833740,2211.023193 3821.380127,2215.152344 
	C3767.014404,2220.701904 3713.095215,2228.842773 3659.475098,2239.296875 
	C3506.299072,2269.159668 3359.695312,2318.585205 3219.479736,2386.972412 
	C3066.346924,2461.659668 2926.691162,2556.425781 2800.489258,2670.781738 
	C2691.858643,2769.215820 2596.292236,2879.156006 2514.425293,3000.864746 
	C2432.980225,3121.946777 2367.053955,3250.981934 2316.986816,3388.045410 
	C2307.865967,3413.014893 2300.392090,3438.585449 2289.929443,3465.765625 
	C2263.624023,3477.608887 2235.888184,3484.356689 2207.375732,3487.473877 
	C2189.113037,3489.470947 2168.605713,3505.783447 2168.393799,3530.945312 
	C2168.231445,3550.236084 2167.811035,3569.549805 2168.521240,3588.815918 
	C2169.255859,3608.737793 2179.600830,3622.447998 2198.450195,3629.356445 
	C2202.170166,3630.719727 2206.205078,3631.204590 2209.968750,3632.470459 
	C2221.842041,3636.463867 2234.436035,3638.807129 2243.649414,3650.368164 
	C2242.595703,3654.908691 2241.339355,3659.413330 2240.519531,3663.995850 
	C2231.845947,3712.499268 2224.298340,3761.142334 2218.930908,3810.165039 
	C2213.342773,3861.204102 2209.961182,3912.362061 2208.750732,3963.625488 
	C2207.713135,4007.571289 2208.111572,4051.518555 2210.727783,4095.500732 
	C2213.537598,4142.737305 2217.497070,4189.786133 2223.226562,4236.748535 
	C2230.331055,4294.979980 2240.730469,4352.615723 2253.874023,4409.721680 
	C2289.320801,4563.729004 2344.121094,4710.543945 2418.415283,4850.106445 
	C2491.155518,4986.749023 2580.022949,5111.927734 2684.868652,5225.703125 
	C2754.108154,5300.839355 2829.240479,5369.654785 2910.241455,5432.014648 
	C3040.376953,5532.200195 3181.451172,5613.339355 3333.692627,5674.932617 
	C3455.128418,5724.062988 3580.494385,5759.223145 3709.744629,5780.888184 
	C3774.860840,5791.803711 3840.322754,5799.822266 3906.158691,5802.820312 
	C3999.382080,5807.065918 4092.629150,5806.608887 4185.695801,5796.923340 
	C4242.041016,5791.059570 4298.004883,5783.180664 4353.610352,5772.482422 
	C4494.233398,5745.426758 4629.585449,5701.890137 4759.580566,5641.928711 
	C4989.100098,5536.061035 5187.614258,5388.315918 5355.619629,5199.490234 
	C5447.727539,5095.967285 5526.781250,4983.272949 5592.572754,4861.379883 
	C5702.349609,4657.995605 5770.849121,4441.562988 5796.734863,4211.742188 
	C5803.375977,4152.782227 5807.705566,4093.717773 5808.289062,4034.369629 
	C5808.852539,3977.034424 5808.077148,3919.728271 5803.270020,3862.584717 
	C5798.524414,3806.182861 5792.028809,3749.958008 5781.675781,3694.258545 
	C5778.760254,3678.572021 5775.401855,3662.968018 5774.023438,3645.224365 
	C5786.393066,3638.706299 5799.576660,3634.635742 5813.083496,3631.083252 
	C5836.156738,3625.016113 5847.833496,3610.220947 5848.366699,3586.796387 
	C5848.803223,3567.595947 5848.944824,3548.354736 5848.205078,3529.170654 
	C5847.376953,3507.679443 5832.947266,3491.795654 5812.010742,3487.972168 
	C5803.548828,3486.427002 5794.925293,3485.695801 5786.523438,3483.900635 
	C5765.201172,3479.344238 5743.822754,3474.826172 5724.376465,3460.661377 
M5944.568848,1970.567505 
	C5920.648438,1993.774902 5896.757324,2017.012207 5872.803223,2040.184570 
	C5782.728027,2127.318848 5693.181152,2214.971436 5609.949219,2308.799072 
	C5567.462402,2356.694580 5527.240723,2406.420898 5489.745117,2458.331299 
	C5486.625977,2462.649658 5483.413574,2466.961426 5480.853516,2471.611816 
	C5468.428711,2494.183350 5476.505859,2521.117920 5499.090820,2533.538086 
	C5514.660645,2542.101074 5529.934570,2541.074463 5544.517578,2531.705566 
	C5555.156250,2524.870850 5565.299316,2517.243164 5575.476562,2509.717285 
	C5658.180176,2448.560303 5734.737793,2380.221191 5808.031250,2308.270020 
	C5864.625488,2252.712402 5919.901367,2195.807129 5975.539551,2139.281006 
	C6051.761719,2061.842529 6126.607422,1983.074585 6199.077637,1902.120117 
	C6253.746582,1841.050293 6307.072266,1778.777832 6360.959473,1717.009277 
	C6364.019531,1713.501465 6367.131348,1709.944702 6369.579102,1706.012573 
	C6385.140625,1681.014526 6372.753906,1648.339478 6344.681641,1639.678589 
	C6327.705078,1634.440918 6313.226562,1639.206787 6300.196777,1650.255249 
	C6275.796875,1670.943848 6251.213867,1691.420532 6227.057617,1712.389893 
	C6131.408203,1795.421753 6038.273926,1881.213379 5944.568848,1970.567505 
M2084.768311,5826.763184 
	C2069.960449,5842.109375 2055.248291,5857.548828 2040.328491,5872.786133 
	C1952.655518,5962.325684 1866.629395,6053.419434 1783.425415,6147.128906 
	C1740.069458,6195.959473 1697.725952,6245.691895 1655.155884,6295.215820 
	C1650.463501,6300.674805 1646.232544,6307.024414 1643.605347,6313.678223 
	C1632.822754,6340.985352 1652.477051,6370.811035 1681.699829,6372.787109 
	C1696.753052,6373.805176 1708.479736,6367.883301 1719.731323,6358.437500 
	C1816.230957,6277.423828 1910.042236,6193.391602 2001.818604,6107.096680 
	C2050.855957,6060.988281 2099.164062,6014.100586 2147.619141,5967.375977 
	C2236.386475,5881.778320 2324.354004,5795.387207 2406.256592,5703.071777 
	C2448.740967,5655.186523 2489.157471,5605.623047 2526.512451,5553.607910 
	C2530.389404,5548.209473 2534.358887,5542.745605 2537.284912,5536.817871 
	C2554.284180,5502.376953 2523.003418,5469.385742 2494.135010,5471.926758 
	C2483.683350,5472.846680 2474.905029,5476.858398 2466.766357,5482.925293 
	C2446.466797,5498.057129 2425.935547,5512.893555 2405.973389,5528.458496 
	C2331.761719,5586.321777 2262.506348,5649.804199 2195.475586,5715.733398 
	C2158.888184,5751.718750 2122.976318,5788.391602 2084.768311,5826.763184 
M2368.962158,2453.006348 
	C2397.390137,2475.068604 2425.752197,2497.216309 2454.293457,2519.131104 
	C2461.147461,2524.393799 2468.258545,2529.506348 2475.838135,2533.602051 
	C2493.907471,2543.365479 2512.761719,2540.517090 2527.416504,2526.589111 
	C2542.527832,2512.226318 2546.351318,2492.259766 2536.926514,2473.688477 
	C2533.635254,2467.203125 2529.220947,2461.242188 2524.950684,2455.306885 
	C2465.652344,2372.879395 2399.328125,2296.293457 2328.373535,2223.879150 
	C2258.407715,2152.473877 2186.825195,2082.643066 2115.493896,2012.587769 
	C2030.831787,1929.440308 1943.990356,1848.592285 1855.157471,1769.919922 
	C1810.757324,1730.597900 1765.474121,1692.271973 1720.507812,1653.591431 
	C1715.988770,1649.704102 1711.242554,1645.827515 1706.010010,1643.068237 
	C1685.726196,1632.371582 1667.144897,1638.112671 1654.363281,1650.190063 
	C1639.515991,1664.219238 1636.227295,1685.279175 1646.018921,1703.348145 
	C1648.532593,1707.986572 1651.864624,1712.277710 1655.327515,1716.291138 
	C1697.124634,1764.733276 1738.445435,1813.602539 1781.006592,1861.365845 
	C1863.495483,1953.937134 1948.429443,2044.252075 2035.054565,2132.969482 
	C2055.079590,2153.477783 2075.330811,2173.766113 2095.250000,2194.376221 
	C2181.916748,2284.049561 2270.982666,2371.179688 2368.962158,2453.006348 
M6153.633301,4052.412109 
	C6158.205566,4053.310547 6162.750488,4054.395752 6167.354980,4055.078857 
	C6235.893066,4065.248047 6304.848633,4071.362305 6374.001953,4074.862549 
	C6416.559082,4077.016357 6459.203613,4078.202148 6501.813965,4078.354248 
	C6562.410645,4078.570801 6623.018555,4077.816406 6683.609863,4076.793945 
	C6778.838867,4075.186768 6874.058594,4073.013184 6969.282227,4071.065674 
	C6973.277344,4070.983887 6977.272461,4070.806641 6981.262695,4070.580078 
	C7041.082520,4067.186768 7100.905273,4063.837646 7160.719727,4060.346436 
	C7188.634766,4058.717285 7216.541016,4056.912842 7244.437012,4054.983887 
	C7259.043457,4053.974121 7273.637207,4052.698975 7288.200684,4051.192383 
	C7294.796875,4050.510010 7301.562012,4049.748047 7307.802246,4047.673828 
	C7324.282227,4042.195557 7334.568848,4030.584961 7337.954102,4013.492188 
	C7341.213379,3997.034912 7335.544922,3983.308594 7323.476074,3972.161377 
	C7315.354004,3964.659424 7305.476074,3961.214600 7294.448242,3960.386230 
	C7244.662598,3956.645264 7194.919434,3952.280518 7145.103516,3949.019287 
	C7096.603516,3945.844482 7048.054199,3943.242920 6999.489746,3941.292480 
	C6943.594238,3939.047363 6887.662109,3937.688965 6831.740234,3936.145264 
	C6795.126953,3935.134277 6758.507324,3934.053223 6721.884766,3933.743896 
	C6619.990234,3932.883301 6518.102051,3930.547119 6416.202148,3934.943604 
	C6368.960449,3936.981445 6321.782227,3939.175537 6274.669434,3943.381592 
	C6230.881348,3947.291260 6187.337891,3952.788086 6143.997070,3960.021240 
	C6139.431641,3960.783203 6134.806152,3961.745850 6130.495605,3963.374268 
	C6111.868164,3970.411377 6100.531250,3987.290039 6101.062500,4006.657471 
	C6101.588867,4025.814697 6114.000488,4042.448242 6132.726074,4048.388672 
	C6138.391602,4050.186035 6144.415039,4050.853516 6153.633301,4052.412109 
M1093.906128,4072.151123 
	C1127.199707,4073.224854 1160.486572,4074.624512 1193.788208,4075.301270 
	C1253.743896,4076.519287 1313.705933,4077.869873 1373.669678,4078.114014 
	C1435.626465,4078.366211 1497.588623,4077.408936 1559.547729,4076.903564 
	C1616.863647,4076.436279 1674.052612,4073.692139 1731.166260,4068.585205 
	C1774.297241,4064.728516 1817.312500,4060.259766 1859.991455,4052.871094 
	C1868.504639,4051.397461 1877.276611,4050.603271 1885.414185,4047.928711 
	C1909.787476,4039.917236 1921.671143,4013.965332 1912.819214,3989.842529 
	C1906.098877,3971.528564 1892.104858,3963.169678 1873.704590,3960.009766 
	C1822.473389,3951.212891 1770.898804,3944.693359 1719.109253,3941.196289 
	C1657.980713,3937.068848 1596.697510,3933.751221 1535.452393,3933.177734 
	C1446.182861,3932.341553 1356.883423,3933.943848 1267.604980,3935.131836 
	C1210.313721,3935.893799 1153.020264,3937.291016 1095.759033,3939.293701 
	C1033.180298,3941.481689 970.618164,3944.326660 908.085083,3947.581299 
	C859.532043,3950.108398 811.029541,3953.627686 762.515808,3956.873291 
	C748.565369,3957.806396 734.636047,3959.157471 720.734497,3960.662598 
	C716.150146,3961.158691 711.525818,3962.311768 707.190796,3963.903076 
	C689.853149,3970.266846 678.136658,3987.444580 678.394531,4005.601074 
	C678.675476,4025.386963 690.668335,4042.009766 709.251648,4047.798096 
	C714.306824,4049.372559 719.629272,4050.480225 724.901306,4050.904541 
	C762.742126,4053.950684 800.584290,4057.020020 838.460327,4059.573486 
	C869.695068,4061.679199 900.968872,4063.251221 932.239624,4064.766357 
	C984.801514,4067.312988 1037.374756,4069.626221 1093.906128,4072.151123 
M5928.743652,6025.264160 
	C5990.079102,6082.608887 6050.837402,6140.587402 6112.926758,6197.104004 
	C6165.154297,6244.642578 6218.879883,6290.536133 6272.059570,6337.024414 
	C6283.087891,6346.666016 6294.154785,6356.384277 6306.047363,6364.888184 
	C6324.179688,6377.852051 6349.762695,6374.917480 6364.437988,6359.260742 
	C6378.877441,6343.853516 6380.290039,6320.090332 6367.579590,6302.203613 
	C6363.727051,6296.782715 6359.429688,6291.647949 6355.036133,6286.645508 
	C6296.114258,6219.554688 6238.330078,6151.414551 6177.875488,6085.732910 
	C6102.515625,6003.857910 6025.571289,5923.412598 5948.154785,5843.469238 
	C5867.951172,5760.647461 5786.962891,5678.553223 5700.141602,5602.498047 
	C5653.998535,5562.077148 5606.504883,5523.354004 5556.678223,5487.540527 
	C5551.276367,5483.657227 5545.875488,5479.588867 5539.962402,5476.630859 
	C5510.787109,5462.041504 5476.335449,5483.110840 5475.354980,5515.742188 
	C5475.020020,5526.895996 5478.098145,5536.738281 5484.687988,5545.626465 
	C5496.593750,5561.683594 5508.253418,5577.927734 5520.382324,5593.814453 
	C5581.152344,5673.411133 5648.326660,5747.443359 5718.764648,5818.433594 
	C5787.293457,5887.499023 5857.302246,5955.095703 5928.743652,6025.264160 
M3943.479736,6958.651855 
	C3944.721436,6986.600098 3945.748779,7014.560547 3947.250000,7042.494629 
	C3950.252197,7098.364746 3953.236816,7154.237793 3956.784668,7210.074707 
	C3958.599609,7238.643555 3961.249023,7267.174316 3964.226318,7295.648926 
	C3966.021973,7312.824707 3975.192871,7325.466797 3991.441895,7332.170898 
	C4018.162598,7343.196777 4047.664062,7327.262207 4052.051025,7298.688477 
	C4054.672852,7281.612793 4055.416992,7264.237305 4056.737793,7246.975586 
	C4060.294189,7200.496582 4064.263672,7154.039551 4067.030029,7107.511719 
	C4070.192383,7054.318359 4072.667480,7001.074707 4074.643555,6947.823242 
	C4076.669434,6893.226562 4078.221436,6838.601562 4079.089844,6783.975098 
	C4080.149414,6717.341309 4080.369873,6650.692871 4080.791016,6584.050293 
	C4081.586914,6458.077637 4080.010254,6332.197266 4063.703369,6207.008789 
	C4060.523682,6182.599121 4057.055176,6158.171387 4052.254639,6134.043945 
	C4047.663818,6110.968262 4031.199463,6098.865234 4007.971680,6099.044922 
	C3985.116943,6099.221680 3969.357666,6112.065918 3964.127441,6135.030762 
	C3962.650635,6141.515625 3961.390869,6148.083496 3960.578613,6154.680664 
	C3956.022705,6191.676758 3951.623047,6228.691406 3947.190918,6265.702637 
	C3940.688965,6320.001465 3938.091064,6374.620117 3937.112305,6429.186035 
	C3934.876953,6553.781738 3934.768311,6678.401855 3939.027832,6802.985840 
	C3940.757812,6853.589355 3941.928711,6904.212891 3943.479736,6958.651855 
M3936.485840,1314.001099 
	C3936.270752,1370.641602 3935.957031,1427.281982 3935.865479,1483.922607 
	C3935.750244,1555.220703 3937.856689,1626.419556 3942.995361,1697.577515 
	C3946.883789,1751.426147 3953.149658,1804.933472 3960.798340,1858.323242 
	C3961.836182,1865.566040 3962.895264,1872.897339 3964.971680,1879.882446 
	C3971.188965,1900.797485 3989.886719,1913.301392 4009.987061,1912.368042 
	C4030.768555,1911.403198 4046.576416,1899.396362 4052.073975,1878.985840 
	C4053.457031,1873.851074 4054.641357,1868.613647 4055.321289,1863.346558 
	C4059.838135,1828.363281 4064.374512,1793.380615 4068.559570,1758.356567 
	C4075.203369,1702.759277 4077.895508,1646.870605 4079.558594,1590.955200 
	C4080.687500,1552.997192 4080.872070,1514.997314 4080.753662,1477.018555 
	C4080.400391,1363.752808 4081.020996,1250.472046 4076.416748,1137.257812 
	C4075.090576,1104.648071 4074.354248,1072.012695 4072.851807,1039.411865 
	C4070.214600,982.193542 4067.525146,924.973816 4064.229980,867.790771 
	C4061.663330,823.250916 4058.200928,778.761902 4054.992188,734.260681 
	C4054.466309,726.965515 4053.468750,719.675964 4052.211914,712.466980 
	C4048.250488,689.746704 4030.154297,675.121521 4007.019775,675.676147 
	C3984.660156,676.212280 3966.871826,692.550964 3964.114014,715.324646 
	C3962.833740,725.897034 3961.667480,736.496521 3960.906738,747.116516 
	C3956.861816,803.575867 3952.369629,860.012024 3949.174316,916.520874 
	C3945.827881,975.705017 3943.141602,1034.942871 3941.319580,1094.192749 
	C3939.107910,1166.109741 3938.102783,1238.064087 3936.485840,1314.001099 
M6665.620605,2946.988770 
	C6667.315430,2944.127686 6669.149902,2941.339355 6670.682129,2938.394043 
	C6684.995117,2910.877441 6662.879395,2871.698975 6625.940430,2875.362305 
	C6620.668945,2875.885010 6615.344727,2876.720947 6610.264160,2878.177002 
	C6568.052734,2890.272461 6525.649414,2901.771240 6483.764648,2914.918701 
	C6371.902832,2950.031982 6262.683594,2992.371338 6154.682617,3037.840332 
	C6098.742188,3061.392090 6044.864746,3089.070312 5994.605957,3123.346924 
	C5982.510742,3131.595947 5970.502441,3140.075195 5959.199707,3149.356689 
	C5945.921387,3160.260498 5940.259766,3174.915771 5942.792480,3192.048096 
	C5946.224121,3215.267822 5964.782227,3232.037109 5988.305176,3231.507568 
	C6002.825684,3231.180664 6017.383789,3228.424561 6031.743164,3225.772217 
	C6093.507324,3214.362549 6152.856934,3194.830566 6211.139648,3171.765137 
	C6284.213867,3142.846436 6355.962891,3110.904297 6426.928223,3077.192383 
	C6500.920410,3042.042236 6574.215332,3005.522461 6644.557129,2963.392822 
	C6651.338867,2959.331055 6657.371094,2954.016113 6665.620605,2946.988770 
M2075.074463,3189.051514 
	C2075.558594,3169.357178 2066.474854,3155.139648 2050.948486,3143.542480 
	C1999.454468,3105.078613 1943.535156,3074.391113 1885.100220,3048.099609 
	C1799.457642,3009.566406 1711.751099,2976.215332 1623.177002,2945.146240 
	C1552.214355,2920.254639 1480.838501,2896.603027 1407.777466,2878.464844 
	C1401.364136,2876.872559 1394.730591,2875.713867 1388.144653,2875.352783 
	C1365.611084,2874.118652 1350.497559,2888.482178 1344.884277,2904.315186 
	C1338.090088,2923.479736 1344.387817,2943.779785 1360.688965,2955.980713 
	C1364.408569,2958.764648 1368.409668,2961.226318 1372.477295,2963.482910 
	C1409.150513,2983.828857 1445.496582,3004.803955 1482.643799,3024.247070 
	C1575.890747,3073.053711 1671.977173,3115.799561 1768.923706,3156.659424 
	C1827.255737,3181.244141 1886.348022,3203.641846 1948.193848,3217.783447 
	C1971.514160,3223.115723 1995.072510,3227.754883 2018.751221,3231.080811 
	C2046.331055,3234.955078 2064.483643,3222.566406 2073.569824,3195.993896 
	C2074.000000,3194.735352 2074.301514,3193.432617 2075.074463,3189.051514 
M2879.727783,6613.448730 
	C2879.051514,6616.708984 2878.020264,6619.940430 2877.757080,6623.233398 
	C2876.173828,6643.054688 2887.860107,6661.319824 2906.692139,6668.763184 
	C2924.425537,6675.772461 2944.985352,6670.536621 2957.268555,6655.540039 
	C2960.622314,6651.445312 2963.394531,6646.816895 2966.036133,6642.206055 
	C2977.948975,6621.411133 2989.927734,6600.649902 3001.503174,6579.666992 
	C3043.661621,6503.246582 3081.189453,6424.541016 3116.555176,6344.796875 
	C3142.996826,6285.174805 3169.394287,6225.518066 3191.518799,6164.100586 
	C3211.420410,6108.853027 3226.447754,6052.353027 3234.470703,5994.109863 
	C3237.551514,5971.745605 3226.921143,5952.262207 3207.330322,5943.383301 
	C3187.731201,5934.500977 3166.327881,5939.505859 3151.652100,5957.154785 
	C3143.576416,5966.865723 3136.043945,5977.087402 3128.943115,5987.538574 
	C3092.506348,6041.166016 3063.177979,6098.637207 3038.094482,6158.288574 
	C2976.125488,6305.659180 2921.010498,6455.441406 2879.727783,6613.448730 
M2938.161865,1591.907104 
	C2966.562012,1675.082031 2998.395752,1756.956787 3031.883057,1838.189819 
	C3053.472412,1890.561401 3077.228271,1941.958252 3107.584229,1989.918335 
	C3121.804199,2012.384399 3136.880615,2034.458984 3153.348877,2055.304932 
	C3167.205078,2072.843994 3188.670654,2076.507080 3207.473389,2067.758301 
	C3226.243408,2059.025146 3237.072266,2039.882568 3234.765381,2018.811890 
	C3233.679688,2008.894775 3232.290283,1998.982178 3230.425781,1989.183960 
	C3220.327148,1936.108276 3205.755615,1884.258179 3186.580078,1833.755859 
	C3144.474365,1722.864624 3095.038818,1615.218994 3042.177002,1509.106079 
	C3018.419189,1461.415405 2993.463867,1414.365967 2965.948486,1368.719849 
	C2962.202148,1362.504639 2958.052734,1356.239258 2952.896729,1351.223755 
	C2939.183838,1337.885132 2917.575684,1335.573975 2901.036865,1344.808594 
	C2883.978271,1354.333496 2875.074951,1372.830322 2878.546143,1391.913940 
	C2879.497314,1397.143311 2880.873047,1402.300903 2882.183350,1407.458618 
	C2897.760986,1468.773071 2916.895264,1529.014404 2938.161865,1591.907104 
M4996.472656,1810.669067 
	C5015.181152,1762.251221 5034.442871,1714.037964 5052.469238,1665.367432 
	C5079.515625,1592.342407 5104.472656,1518.593018 5125.295410,1443.510864 
	C5129.917969,1426.844971 5134.668457,1410.179810 5138.329590,1393.291016 
	C5142.940918,1372.022095 5131.504883,1351.126221 5111.782715,1342.764038 
	C5092.603516,1334.632202 5070.967285,1340.459717 5058.168945,1357.397827 
	C5055.369141,1361.102905 5052.982422,1365.149658 5050.678711,1369.194824 
	C5037.830078,1391.757690 5024.681152,1414.161011 5012.335938,1436.997437 
	C4946.715820,1558.375854 4890.196289,1683.993774 4838.755371,1811.932983 
	C4817.867188,1863.882935 4800.829590,1917.097534 4790.265625,1972.193726 
	C4787.136230,1988.515747 4784.140137,2004.946167 4782.596680,2021.468384 
	C4780.657715,2042.218628 4792.109863,2060.251953 4810.304688,2067.995361 
	C4829.611816,2076.212158 4850.214355,2071.406250 4864.645020,2055.127930 
	C4868.172363,2051.148926 4871.350586,2046.844360 4874.510254,2042.557495 
	C4896.280762,2013.016113 4915.204102,1981.694824 4932.696289,1949.472534 
	C4956.556152,1905.519653 4976.220215,1859.636597 4996.472656,1810.669067 
M5039.496094,6622.676758 
	C5045.264648,6632.415527 5050.522949,6642.502930 5056.904785,6651.821777 
	C5071.194336,6672.687988 5097.232910,6677.562988 5118.632812,6664.680664 
	C5132.229492,6656.495605 5143.354004,6634.328613 5138.059570,6616.033203 
	C5127.148926,6578.329102 5117.670410,6540.195801 5106.140137,6502.688477 
	C5073.062988,6395.091797 5033.049316,6289.983887 4990.548340,6185.806152 
	C4968.396973,6131.508789 4944.395996,6078.034668 4913.577637,6028.026367 
	C4898.581055,6003.692383 4882.268066,5980.081055 4865.224121,5957.127930 
	C4852.424316,5939.890137 4830.029785,5934.894043 4811.343750,5942.588867 
	C4792.232910,5950.458984 4780.627930,5969.292480 4782.460449,5990.429199 
	C4783.320801,6000.354004 4784.912598,6010.237305 4786.612793,6020.063477 
	C4797.553711,6083.302246 4817.054688,6144.042969 4840.463379,6203.630859 
	C4869.685547,6278.015137 4902.077148,6351.023438 4936.460449,6423.139648 
	C4968.267578,6489.853516 5000.898438,6556.165039 5039.496094,6622.676758 
M1708.814575,5034.755371 
	C1715.014893,5032.337402 1721.218872,5029.928711 1727.414917,5027.499512 
	C1791.238892,5002.484375 1855.337646,4978.123535 1917.044556,4948.055664 
	C1960.826660,4926.722656 2002.847778,4902.414062 2042.264526,4873.729980 
	C2047.646851,4869.812988 2053.091553,4865.922852 2058.076660,4861.530762 
	C2073.800781,4847.679199 2078.668945,4827.976562 2071.787354,4809.068848 
	C2064.694580,4789.581055 2044.300171,4777.911133 2026.462158,4779.591797 
	C2018.517822,4780.340332 2010.498657,4780.669434 2002.649780,4781.995605 
	C1941.402100,4792.343750 1882.161621,4809.854004 1824.259644,4832.173340 
	C1747.823730,4861.636719 1672.877319,4894.557129 1598.875122,4929.611816 
	C1536.300903,4959.252930 1474.129761,4989.742676 1413.742310,5023.702637 
	C1397.496460,5032.838379 1381.487671,5042.396484 1365.387207,5051.790039 
	C1354.548706,5058.113770 1347.069946,5067.132812 1343.955933,5079.404297 
	C1335.944458,5110.974121 1359.855957,5139.047852 1392.361084,5135.761719 
	C1400.890015,5134.898926 1409.279907,5132.282227 1417.629028,5130.075195 
	C1515.533936,5104.203125 1611.222412,5071.543457 1708.814575,5034.755371 
M6515.500488,5106.371094 
	C6547.533203,5115.311035 6579.556152,5124.286621 6611.610840,5133.147461 
	C6616.076660,5134.381836 6620.661133,5135.527832 6625.255859,5135.894531 
	C6646.069824,5137.553223 6664.214355,5126.532715 6671.491211,5108.146973 
	C6679.246094,5088.551270 6673.351074,5067.778320 6656.065918,5054.871094 
	C6651.282227,5051.298828 6646.108887,5048.173828 6640.859863,5045.311523 
	C6595.867188,5020.776855 6551.322754,4995.354980 6505.677246,4972.096680 
	C6411.939941,4924.332520 6315.705566,4881.917969 6218.352051,4842.101074 
	C6159.144043,4817.885742 6098.658203,4797.454590 6035.504883,4786.034668 
	C6019.832031,4783.200684 6003.967285,4780.596680 5988.100586,4779.876465 
	C5967.956543,4778.962402 5953.745117,4789.904297 5946.001953,4807.854004 
	C5938.173828,4826.000488 5941.555664,4843.200195 5955.283203,4857.654785 
	C5960.287109,4862.923828 5966.182129,4867.436523 5972.050781,4871.781250 
	C6020.435059,4907.602539 6072.955078,4936.348145 6127.724121,4960.925293 
	C6252.935059,5017.114258 6381.747559,5063.794434 6515.500488,5106.371094 
z"/>
<path fill="#FFC023" opacity="1.000000" stroke="none" 
	d="
M5772.246582,3647.325928 
	C5775.401855,3662.968018 5778.760254,3678.572021 5781.675781,3694.258545 
	C5792.028809,3749.958008 5798.524414,3806.182861 5803.270020,3862.584717 
	C5808.077148,3919.728271 5808.852539,3977.034424 5808.289062,4034.369629 
	C5807.705566,4093.717773 5803.375977,4152.782227 5796.734863,4211.742188 
	C5770.849121,4441.562988 5702.349609,4657.995605 5592.572754,4861.379883 
	C5526.781250,4983.272949 5447.727539,5095.967285 5355.619629,5199.490234 
	C5187.614258,5388.315918 4989.100098,5536.061035 4759.580566,5641.928711 
	C4629.585449,5701.890137 4494.233398,5745.426758 4353.610352,5772.482422 
	C4298.004883,5783.180664 4242.041016,5791.059570 4185.695801,5796.923340 
	C4092.629150,5806.608887 3999.382080,5807.065918 3906.158691,5802.820312 
	C3840.322754,5799.822266 3774.860840,5791.803711 3709.744629,5780.888184 
	C3580.494385,5759.223145 3455.128418,5724.062988 3333.692627,5674.932617 
	C3181.451172,5613.339355 3040.376953,5532.200195 2910.241455,5432.014648 
	C2829.240479,5369.654785 2754.108154,5300.839355 2684.868652,5225.703125 
	C2580.022949,5111.927734 2491.155518,4986.749023 2418.415283,4850.106445 
	C2344.121094,4710.543945 2289.320801,4563.729004 2253.874023,4409.721680 
	C2240.730469,4352.615723 2230.331055,4294.979980 2223.226562,4236.748535 
	C2217.497070,4189.786133 2213.537598,4142.737305 2210.727783,4095.500732 
	C2208.111572,4051.518555 2207.713135,4007.571289 2208.750732,3963.625488 
	C2209.961182,3912.362061 2213.342773,3861.204102 2218.930908,3810.165039 
	C2224.298340,3761.142334 2231.845947,3712.499268 2240.519531,3663.995850 
	C2241.339355,3659.413330 2242.595703,3654.908691 2245.453613,3648.973389 
	C2292.289551,3671.853271 2318.715088,3709.995850 2331.097412,3758.976562 
	C2366.013916,3897.096680 2401.104492,4035.172363 2436.251709,4173.233887 
	C2444.462646,4205.487305 2451.635254,4238.112793 2461.903809,4269.716309 
	C2515.154541,4433.604004 2666.796875,4535.925781 2825.453369,4536.288086 
	C2906.097656,4536.472168 2986.742188,4536.335449 3067.386719,4536.335938 
	C3169.358643,4536.336914 3271.330811,4536.225586 3373.302490,4536.389648 
	C3404.133301,4536.439453 3434.544922,4533.163086 3464.275391,4525.243652 
	C3595.171387,4490.375977 3685.120117,4409.407227 3735.013916,4283.663574 
	C3742.134277,4265.717773 3748.725342,4247.547852 3756.329590,4229.810547 
	C3774.753906,4186.836914 3796.557373,4145.685547 3824.359131,4107.927246 
	C3847.058594,4077.099121 3873.150146,4049.716309 3905.717773,4029.078857 
	C3929.664551,4013.903809 3955.555176,4003.580566 3983.785645,4000.204102 
	C4034.309570,3994.161621 4080.266602,4006.418213 4121.640625,4035.986084 
	C4144.033203,4051.988770 4163.348633,4071.204346 4180.667969,4092.504639 
	C4207.732910,4125.791016 4229.736816,4162.312988 4247.454590,4201.218750 
	C4261.792480,4232.702637 4274.333984,4265.011719 4287.428711,4297.054199 
	C4346.228027,4440.933105 4487.415527,4535.831543 4640.198730,4536.206543 
	C4824.146484,4536.658691 5008.097168,4536.293457 5192.046387,4536.332520 
	C5231.710938,4536.340820 5270.491699,4530.300293 5307.828613,4517.221680 
	C5441.086914,4470.542969 5526.099609,4378.428711 5563.095215,4242.426270 
	C5578.994629,4183.978027 5593.029785,4125.023438 5607.964355,4066.312744 
	C5634.552246,3961.794922 5661.236328,3857.302002 5687.752441,3752.766357 
	C5694.442383,3726.391846 5706.713379,3703.003906 5724.813965,3682.843750 
	C5738.203125,3667.929932 5753.041016,3654.626709 5772.246582,3647.325928 
M3999.209717,4845.412109 
	C4037.802002,4846.658691 4074.774902,4839.403809 4109.882812,4823.441895 
	C4153.386230,4803.664062 4188.951660,4774.368652 4214.155273,4733.416504 
	C4218.599121,4726.195312 4222.541504,4717.966309 4223.978027,4709.725586 
	C4228.141113,4685.842773 4213.670898,4664.242676 4189.390625,4655.896484 
	C4168.311035,4648.650391 4149.451172,4654.453125 4136.447754,4672.304199 
	C4134.099609,4675.527344 4132.146973,4679.035645 4129.967773,4682.384277 
	C4113.426758,4707.802734 4090.779785,4725.557129 4062.469727,4736.251465 
	C4033.627930,4747.146484 4003.910645,4749.226562 3974.019287,4742.906738 
	C3937.444824,4735.173828 3907.395020,4716.647949 3886.370361,4684.943848 
	C3884.898682,4682.724121 3883.460693,4680.481934 3881.984619,4678.265137 
	C3868.122070,4657.446777 3839.923828,4649.312012 3813.236816,4667.154297 
	C3789.489014,4683.031738 3785.145264,4710.570801 3799.596436,4731.769531 
	C3808.196533,4744.385254 3817.013916,4757.138184 3827.520752,4768.118652 
	C3873.274902,4815.936035 3929.507568,4841.619141 3999.209717,4845.412109 
z"/>
<path fill="#122A34" opacity="1.000000" stroke="none" 
	d="
M5773.134766,3646.275146 
	C5753.041016,3654.626709 5738.203125,3667.929932 5724.813965,3682.843750 
	C5706.713379,3703.003906 5694.442383,3726.391846 5687.752441,3752.766357 
	C5661.236328,3857.302002 5634.552246,3961.794922 5607.964355,4066.312744 
	C5593.029785,4125.023438 5578.994629,4183.978027 5563.095215,4242.426270 
	C5526.099609,4378.428711 5441.086914,4470.542969 5307.828613,4517.221680 
	C5270.491699,4530.300293 5231.710938,4536.340820 5192.046387,4536.332520 
	C5008.097168,4536.293457 4824.146484,4536.658691 4640.198730,4536.206543 
	C4487.415527,4535.831543 4346.228027,4440.933105 4287.428711,4297.054199 
	C4274.333984,4265.011719 4261.792480,4232.702637 4247.454590,4201.218750 
	C4229.736816,4162.312988 4207.732910,4125.791016 4180.667969,4092.504639 
	C4163.348633,4071.204346 4144.033203,4051.988770 4121.640625,4035.986084 
	C4080.266602,4006.418213 4034.309570,3994.161621 3983.785645,4000.204102 
	C3955.555176,4003.580566 3929.664551,4013.903809 3905.717773,4029.078857 
	C3873.150146,4049.716309 3847.058594,4077.099121 3824.359131,4107.927246 
	C3796.557373,4145.685547 3774.753906,4186.836914 3756.329590,4229.810547 
	C3748.725342,4247.547852 3742.134277,4265.717773 3735.013916,4283.663574 
	C3685.120117,4409.407227 3595.171387,4490.375977 3464.275391,4525.243652 
	C3434.544922,4533.163086 3404.133301,4536.439453 3373.302490,4536.389648 
	C3271.330811,4536.225586 3169.358643,4536.336914 3067.386719,4536.335938 
	C2986.742188,4536.335449 2906.097656,4536.472168 2825.453369,4536.288086 
	C2666.796875,4535.925781 2515.154541,4433.604004 2461.903809,4269.716309 
	C2451.635254,4238.112793 2444.462646,4205.487305 2436.251709,4173.233887 
	C2401.104492,4035.172363 2366.013916,3897.096680 2331.097412,3758.976562 
	C2318.715088,3709.995850 2292.289551,3671.853271 2245.860107,3647.364258 
	C2234.436035,3638.807129 2221.842041,3636.463867 2209.968750,3632.470459 
	C2206.205078,3631.204590 2202.170166,3630.719727 2198.450195,3629.356445 
	C2179.600830,3622.447998 2169.255859,3608.737793 2168.521240,3588.815918 
	C2167.811035,3569.549805 2168.231445,3550.236084 2168.393799,3530.945312 
	C2168.605713,3505.783447 2189.113037,3489.470947 2207.375732,3487.473877 
	C2235.888184,3484.356689 2263.624023,3477.608887 2292.479980,3464.771240 
	C2308.222900,3457.425781 2321.584229,3451.398438 2334.568848,3444.647705 
	C2354.069824,3434.508545 2373.262451,3423.777588 2392.665283,3413.447510 
	C2438.718506,3388.928223 2486.705811,3369.049072 2537.630371,3357.494141 
	C2571.356445,3349.842041 2605.589600,3344.313477 2639.721680,3338.585693 
	C2693.632812,3329.539307 2747.990479,3323.816162 2802.525879,3320.740967 
	C2853.739014,3317.853271 2905.006592,3316.646240 2956.382080,3318.934326 
	C3007.708496,3321.220215 3058.774902,3325.714111 3109.552002,3333.022461 
	C3187.409668,3344.228760 3264.027588,3361.526855 3339.943115,3382.067139 
	C3446.108398,3410.791260 3550.227783,3445.639160 3652.676270,3485.577393 
	C3763.651123,3528.839600 3878.559814,3551.827393 3997.812500,3552.919678 
	C4074.105469,3553.618652 4149.363281,3545.730713 4223.805176,3528.914795 
	C4279.196289,3516.402100 4332.602051,3497.983398 4385.480469,3477.642334 
	C4530.541992,3421.840332 4678.643555,3376.225586 4831.269531,3346.066650 
	C4884.876465,3335.473877 4938.876465,3327.285156 4993.432129,3323.479248 
	C5023.997070,3321.346924 5054.625977,3320.140869 5085.217285,3318.373535 
	C5132.580078,3315.637207 5179.886230,3318.386230 5227.035156,3321.686768 
	C5272.174316,3324.846436 5317.176270,3330.506104 5362.083496,3336.274902 
	C5402.359863,3341.448730 5442.457520,3348.072754 5481.937988,3357.903564 
	C5534.617188,3371.021484 5584.266602,3391.737793 5631.951660,3417.440430 
	C5654.231934,3429.449951 5676.472168,3441.544678 5698.966309,3453.143799 
	C5707.157715,3457.367432 5716.034180,3460.262939 5724.598145,3463.764404 
	C5743.822754,3474.826172 5765.201172,3479.344238 5786.523438,3483.900635 
	C5794.925293,3485.695801 5803.548828,3486.427002 5812.010742,3487.972168 
	C5832.947266,3491.795654 5847.376953,3507.679443 5848.205078,3529.170654 
	C5848.944824,3548.354736 5848.803223,3567.595947 5848.366699,3586.796387 
	C5847.833496,3610.220947 5836.156738,3625.016113 5813.083496,3631.083252 
	C5799.576660,3634.635742 5786.393066,3638.706299 5773.134766,3646.275146 
M2639.344971,3993.289795 
	C2625.499268,4010.243652 2611.510254,4027.083984 2597.926758,4044.245361 
	C2595.197754,4047.693359 2593.069336,4052.191650 2592.296631,4056.498291 
	C2590.485352,4066.594971 2597.208740,4072.856445 2604.600342,4077.553223 
	C2611.196533,4081.744629 2618.844727,4081.435303 2625.210693,4076.481201 
	C2639.335938,4065.488281 2653.387695,4054.377197 2667.047607,4042.816162 
	C2680.727051,4031.239014 2693.465332,4018.527588 2707.381836,4007.258545 
	C2730.111328,3988.852295 2751.866699,3969.320557 2772.684570,3948.903076 
	C2825.485107,3897.116943 2877.673828,3844.700684 2929.677979,3792.112061 
	C2953.044678,3768.482910 2975.386230,3743.839600 2998.188721,3719.652832 
	C2999.102295,3718.683838 3000.017822,3717.712891 3000.872559,3716.692383 
	C3013.642334,3701.445801 3026.273438,3686.080322 3039.204102,3670.971436 
	C3049.994385,3658.364014 3061.253174,3646.157959 3072.046631,3633.553223 
	C3075.484619,3629.538818 3078.066650,3624.796631 3081.097168,3620.426758 
	C3084.448486,3615.594482 3084.382568,3610.525635 3082.434082,3605.221191 
	C3076.713135,3589.647217 3062.703613,3584.104004 3049.250732,3593.800293 
	C3033.138916,3605.412598 3017.980957,3618.396729 3002.833252,3631.284424 
	C2988.678223,3643.327637 2975.696777,3656.812988 2961.095215,3668.254883 
	C2935.400635,3688.389404 2914.179932,3713.383301 2888.564697,3733.528076 
	C2826.813721,3796.973877 2761.669189,3857.045166 2702.321533,3922.921387 
	C2681.880859,3945.610596 2661.583496,3968.497803 2639.344971,3993.289795 
M4850.110840,3736.006348 
	C4790.298828,3795.809814 4730.484375,3855.611084 4670.680176,3915.422363 
	C4666.914062,3919.189209 4662.606445,3922.605225 4659.611328,3926.920654 
	C4643.992188,3949.421875 4622.091309,3966.253418 4605.495117,3987.986572 
	C4589.419922,4009.037354 4571.069824,4028.338867 4554.114746,4048.737549 
	C4549.494141,4054.296631 4545.982910,4060.875000 4542.603516,4067.322021 
	C4541.170898,4070.054688 4540.302734,4073.935791 4541.046875,4076.811279 
	C4544.511719,4090.194092 4559.121094,4101.534668 4573.090332,4091.343994 
	C4587.540039,4080.803223 4601.729004,4069.843994 4615.412598,4058.332275 
	C4630.134277,4045.947021 4643.687988,4032.160645 4658.552734,4019.961914 
	C4684.236816,3998.884033 4708.972656,3976.673584 4732.308594,3953.180420 
	C4792.791016,3892.290039 4856.093262,3834.158203 4912.793945,3769.530518 
	C4924.193359,3756.536621 4937.427246,3745.162109 4948.990723,3732.299561 
	C4962.271973,3717.525635 4974.664062,3701.951172 4987.388184,3686.679443 
	C5000.542480,3670.892578 5013.820801,3655.203125 5026.679199,3639.177734 
	C5034.459473,3629.481689 5034.033203,3620.792969 5026.386230,3612.374268 
	C5017.539062,3602.634277 5008.778809,3600.800293 4998.236328,3608.023926 
	C4986.770020,3615.880859 4975.635254,3624.330078 4965.042969,3633.330078 
	C4943.311523,3651.793945 4921.745605,3670.475586 4900.674316,3689.684570 
	C4884.484375,3704.443359 4869.956543,3721.020020 4850.110840,3736.006348 
M2699.835938,3766.004639 
	C2723.113525,3741.419434 2749.103271,3719.496094 2769.950928,3692.487793 
	C2784.507812,3673.629639 2800.939697,3656.229492 2815.873535,3637.647461 
	C2823.325928,3628.374512 2829.656250,3618.124756 2835.748535,3607.874023 
	C2837.950439,3604.169922 2839.548828,3598.847900 2838.715088,3594.825195 
	C2835.639893,3579.980957 2820.047607,3572.298096 2806.354980,3579.106689 
	C2797.541260,3583.488770 2789.604492,3589.680908 2781.422852,3595.278320 
	C2747.928955,3618.192383 2718.487061,3645.980225 2688.915527,3673.492188 
	C2668.031738,3692.921875 2648.645508,3713.877441 2629.838623,3735.457520 
	C2614.130615,3753.481201 2599.251709,3772.081055 2584.773193,3791.015625 
	C2578.781738,3798.851074 2573.773193,3807.738281 2569.899658,3816.822021 
	C2563.991455,3830.677002 2573.405273,3843.564209 2588.521729,3844.154053 
	C2596.147705,3844.451660 2602.459961,3842.422119 2608.931885,3838.074951 
	C2633.749268,3821.406738 2657.519043,3803.512451 2679.268555,3782.942383 
	C2685.020020,3777.503418 2691.589600,3772.929443 2699.835938,3766.004639 
M4535.035645,3859.865479 
	C4545.874512,3861.258789 4554.705566,3855.753174 4562.704590,3850.132080 
	C4598.050781,3825.292480 4630.537109,3796.847168 4662.055176,3767.432861 
	C4680.475098,3750.242432 4698.687988,3732.713867 4714.168945,3712.464111 
	C4723.785645,3699.885010 4736.634766,3689.919678 4745.690430,3676.566650 
	C4751.253906,3668.363037 4758.466797,3661.294189 4764.291016,3653.247070 
	C4771.296387,3643.569092 4777.759277,3633.485352 4784.169922,3623.394775 
	C4787.464844,3618.208252 4789.307617,3612.429932 4786.647949,3606.317383 
	C4781.306152,3594.039062 4764.930176,3587.971191 4752.988281,3594.069580 
	C4748.278320,3596.474854 4744.021484,3599.782715 4739.616211,3602.765137 
	C4723.646484,3613.577148 4708.694336,3625.636719 4694.302246,3638.496582 
	C4680.471191,3650.854980 4665.269043,3661.727783 4651.870117,3674.511230 
	C4615.298828,3709.404541 4579.870117,3745.466064 4548.867676,3785.518799 
	C4538.738281,3798.605713 4530.042480,3812.802002 4520.678223,3826.482178 
	C4514.461426,3835.563477 4516.274902,3844.194336 4522.704102,3852.078369 
	C4525.130859,3855.054199 4528.841309,3856.983398 4535.035645,3859.865479 
z"/>
<path fill="#FFC023" opacity="1.000000" stroke="none" 
	d="
M5724.487305,3462.212891 
	C5716.034180,3460.262939 5707.157715,3457.367432 5698.966309,3453.143799 
	C5676.472168,3441.544678 5654.231934,3429.449951 5631.951660,3417.440430 
	C5584.266602,3391.737793 5534.617188,3371.021484 5481.937988,3357.903564 
	C5442.457520,3348.072754 5402.359863,3341.448730 5362.083496,3336.274902 
	C5317.176270,3330.506104 5272.174316,3324.846436 5227.035156,3321.686768 
	C5179.886230,3318.386230 5132.580078,3315.637207 5085.217285,3318.373535 
	C5054.625977,3320.140869 5023.997070,3321.346924 4993.432129,3323.479248 
	C4938.876465,3327.285156 4884.876465,3335.473877 4831.269531,3346.066650 
	C4678.643555,3376.225586 4530.541992,3421.840332 4385.480469,3477.642334 
	C4332.602051,3497.983398 4279.196289,3516.402100 4223.805176,3528.914795 
	C4149.363281,3545.730713 4074.105469,3553.618652 3997.812500,3552.919678 
	C3878.559814,3551.827393 3763.651123,3528.839600 3652.676270,3485.577393 
	C3550.227783,3445.639160 3446.108398,3410.791260 3339.943115,3382.067139 
	C3264.027588,3361.526855 3187.409668,3344.228760 3109.552002,3333.022461 
	C3058.774902,3325.714111 3007.708496,3321.220215 2956.382080,3318.934326 
	C2905.006592,3316.646240 2853.739014,3317.853271 2802.525879,3320.740967 
	C2747.990479,3323.816162 2693.632812,3329.539307 2639.721680,3338.585693 
	C2605.589600,3344.313477 2571.356445,3349.842041 2537.630371,3357.494141 
	C2486.705811,3369.049072 2438.718506,3388.928223 2392.665283,3413.447510 
	C2373.262451,3423.777588 2354.069824,3434.508545 2334.568848,3444.647705 
	C2321.584229,3451.398438 2308.222900,3457.425781 2293.594238,3463.827637 
	C2300.392090,3438.585449 2307.865967,3413.014893 2316.986816,3388.045410 
	C2367.053955,3250.981934 2432.980225,3121.946777 2514.425293,3000.864746 
	C2596.292236,2879.156006 2691.858643,2769.215820 2800.489258,2670.781738 
	C2926.691162,2556.425781 3066.346924,2461.659668 3219.479736,2386.972412 
	C3359.695312,2318.585205 3506.299072,2269.159668 3659.475098,2239.296875 
	C3713.095215,2228.842773 3767.014404,2220.701904 3821.380127,2215.152344 
	C3861.833740,2211.023193 3902.291748,2207.762451 3942.954590,2207.003906 
	C3968.925781,2206.519531 3994.908691,2204.681885 4020.853516,2205.173340 
	C4078.788574,2206.270264 4136.626465,2209.060059 4194.354980,2214.952148 
	C4295.975586,2225.324463 4395.865723,2244.270996 4494.208496,2271.706787 
	C4635.416016,2311.101074 4769.717285,2367.083496 4897.118164,2439.576660 
	C5021.630859,2510.426025 5135.958496,2595.039062 5240.484375,2693.054199 
	C5375.234863,2819.410889 5487.662598,2963.182617 5578.367676,3123.992432 
	C5637.462891,3228.761230 5685.425781,3338.443604 5722.308105,3452.951904 
	C5723.123047,3455.481445 5723.692383,3458.089844 5724.487305,3462.212891 
z"/>
<path fill="#FFC125" opacity="1.000000" stroke="none" 
	d="
M5945.582520,1969.582153 
	C6038.273926,1881.213379 6131.408203,1795.421753 6227.057617,1712.389893 
	C6251.213867,1691.420532 6275.796875,1670.943848 6300.196777,1650.255249 
	C6313.226562,1639.206787 6327.705078,1634.440918 6344.681641,1639.678589 
	C6372.753906,1648.339478 6385.140625,1681.014526 6369.579102,1706.012573 
	C6367.131348,1709.944702 6364.019531,1713.501465 6360.959473,1717.009277 
	C6307.072266,1778.777832 6253.746582,1841.050293 6199.077637,1902.120117 
	C6126.607422,1983.074585 6051.761719,2061.842529 5975.539551,2139.281006 
	C5919.901367,2195.807129 5864.625488,2252.712402 5808.031250,2308.270020 
	C5734.737793,2380.221191 5658.180176,2448.560303 5575.476562,2509.717285 
	C5565.299316,2517.243164 5555.156250,2524.870850 5544.517578,2531.705566 
	C5529.934570,2541.074463 5514.660645,2542.101074 5499.090820,2533.538086 
	C5476.505859,2521.117920 5468.428711,2494.183350 5480.853516,2471.611816 
	C5483.413574,2466.961426 5486.625977,2462.649658 5489.745117,2458.331299 
	C5527.240723,2406.420898 5567.462402,2356.694580 5609.949219,2308.799072 
	C5693.181152,2214.971436 5782.728027,2127.318848 5872.803223,2040.184570 
	C5896.757324,2017.012207 5920.648438,1993.774902 5945.582520,1969.582153 
z"/>
<path fill="#FFC125" opacity="1.000000" stroke="none" 
	d="
M2085.764160,5825.758789 
	C2122.976318,5788.391602 2158.888184,5751.718750 2195.475586,5715.733398 
	C2262.506348,5649.804199 2331.761719,5586.321777 2405.973389,5528.458496 
	C2425.935547,5512.893555 2446.466797,5498.057129 2466.766357,5482.925293 
	C2474.905029,5476.858398 2483.683350,5472.846680 2494.135010,5471.926758 
	C2523.003418,5469.385742 2554.284180,5502.376953 2537.284912,5536.817871 
	C2534.358887,5542.745605 2530.389404,5548.209473 2526.512451,5553.607910 
	C2489.157471,5605.623047 2448.740967,5655.186523 2406.256592,5703.071777 
	C2324.354004,5795.387207 2236.386475,5881.778320 2147.619141,5967.375977 
	C2099.164062,6014.100586 2050.855957,6060.988281 2001.818604,6107.096680 
	C1910.042236,6193.391602 1816.230957,6277.423828 1719.731323,6358.437500 
	C1708.479736,6367.883301 1696.753052,6373.805176 1681.699829,6372.787109 
	C1652.477051,6370.811035 1632.822754,6340.985352 1643.605347,6313.678223 
	C1646.232544,6307.024414 1650.463501,6300.674805 1655.155884,6295.215820 
	C1697.725952,6245.691895 1740.069458,6195.959473 1783.425415,6147.128906 
	C1866.629395,6053.419434 1952.655518,5962.325684 2040.328491,5872.786133 
	C2055.248291,5857.548828 2069.960449,5842.109375 2085.764160,5825.758789 
z"/>
<path fill="#FFC125" opacity="1.000000" stroke="none" 
	d="
M2367.855713,2452.118652 
	C2270.982666,2371.179688 2181.916748,2284.049561 2095.250000,2194.376221 
	C2075.330811,2173.766113 2055.079590,2153.477783 2035.054565,2132.969482 
	C1948.429443,2044.252075 1863.495483,1953.937134 1781.006592,1861.365845 
	C1738.445435,1813.602539 1697.124634,1764.733276 1655.327515,1716.291138 
	C1651.864624,1712.277710 1648.532593,1707.986572 1646.018921,1703.348145 
	C1636.227295,1685.279175 1639.515991,1664.219238 1654.363281,1650.190063 
	C1667.144897,1638.112671 1685.726196,1632.371582 1706.010010,1643.068237 
	C1711.242554,1645.827515 1715.988770,1649.704102 1720.507812,1653.591431 
	C1765.474121,1692.271973 1810.757324,1730.597900 1855.157471,1769.919922 
	C1943.990356,1848.592285 2030.831787,1929.440308 2115.493896,2012.587769 
	C2186.825195,2082.643066 2258.407715,2152.473877 2328.373535,2223.879150 
	C2399.328125,2296.293457 2465.652344,2372.879395 2524.950684,2455.306885 
	C2529.220947,2461.242188 2533.635254,2467.203125 2536.926514,2473.688477 
	C2546.351318,2492.259766 2542.527832,2512.226318 2527.416504,2526.589111 
	C2512.761719,2540.517090 2493.907471,2543.365479 2475.838135,2533.602051 
	C2468.258545,2529.506348 2461.147461,2524.393799 2454.293457,2519.131104 
	C2425.752197,2497.216309 2397.390137,2475.068604 2367.855713,2452.118652 
z"/>
<path fill="#FFC125" opacity="1.000000" stroke="none" 
	d="
M6151.954102,4052.225342 
	C6144.415039,4050.853516 6138.391602,4050.186035 6132.726074,4048.388672 
	C6114.000488,4042.448242 6101.588867,4025.814697 6101.062500,4006.657471 
	C6100.531250,3987.290039 6111.868164,3970.411377 6130.495605,3963.374268 
	C6134.806152,3961.745850 6139.431641,3960.783203 6143.997070,3960.021240 
	C6187.337891,3952.788086 6230.881348,3947.291260 6274.669434,3943.381592 
	C6321.782227,3939.175537 6368.960449,3936.981445 6416.202148,3934.943604 
	C6518.102051,3930.547119 6619.990234,3932.883301 6721.884766,3933.743896 
	C6758.507324,3934.053223 6795.126953,3935.134277 6831.740234,3936.145264 
	C6887.662109,3937.688965 6943.594238,3939.047363 6999.489746,3941.292480 
	C7048.054199,3943.242920 7096.603516,3945.844482 7145.103516,3949.019287 
	C7194.919434,3952.280518 7244.662598,3956.645264 7294.448242,3960.386230 
	C7305.476074,3961.214600 7315.354004,3964.659424 7323.476074,3972.161377 
	C7335.544922,3983.308594 7341.213379,3997.034912 7337.954102,4013.492188 
	C7334.568848,4030.584961 7324.282227,4042.195557 7307.802246,4047.673828 
	C7301.562012,4049.748047 7294.796875,4050.510010 7288.200684,4051.192383 
	C7273.637207,4052.698975 7259.043457,4053.974121 7244.437012,4054.983887 
	C7216.541016,4056.912842 7188.634766,4058.717285 7160.719727,4060.346436 
	C7100.905273,4063.837646 7041.082520,4067.186768 6981.262695,4070.580078 
	C6977.272461,4070.806641 6973.277344,4070.983887 6969.282227,4071.065674 
	C6874.058594,4073.013184 6778.838867,4075.186768 6683.609863,4076.793945 
	C6623.018555,4077.816406 6562.410645,4078.570801 6501.813965,4078.354248 
	C6459.203613,4078.202148 6416.559082,4077.016357 6374.001953,4074.862549 
	C6304.848633,4071.362305 6235.893066,4065.248047 6167.354980,4055.078857 
	C6162.750488,4054.395752 6158.205566,4053.310547 6151.954102,4052.225342 
z"/>
<path fill="#FFC125" opacity="1.000000" stroke="none" 
	d="
M1091.924561,4072.094238 
	C1037.374756,4069.626221 984.801514,4067.312988 932.239624,4064.766357 
	C900.968872,4063.251221 869.695068,4061.679199 838.460327,4059.573486 
	C800.584290,4057.020020 762.742126,4053.950684 724.901306,4050.904541 
	C719.629272,4050.480225 714.306824,4049.372559 709.251648,4047.798096 
	C690.668335,4042.009766 678.675476,4025.386963 678.394531,4005.601074 
	C678.136658,3987.444580 689.853149,3970.266846 707.190796,3963.903076 
	C711.525818,3962.311768 716.150146,3961.158691 720.734497,3960.662598 
	C734.636047,3959.157471 748.565369,3957.806396 762.515808,3956.873291 
	C811.029541,3953.627686 859.532043,3950.108398 908.085083,3947.581299 
	C970.618164,3944.326660 1033.180298,3941.481689 1095.759033,3939.293701 
	C1153.020264,3937.291016 1210.313721,3935.893799 1267.604980,3935.131836 
	C1356.883423,3933.943848 1446.182861,3932.341553 1535.452393,3933.177734 
	C1596.697510,3933.751221 1657.980713,3937.068848 1719.109253,3941.196289 
	C1770.898804,3944.693359 1822.473389,3951.212891 1873.704590,3960.009766 
	C1892.104858,3963.169678 1906.098877,3971.528564 1912.819214,3989.842529 
	C1921.671143,4013.965332 1909.787476,4039.917236 1885.414185,4047.928711 
	C1877.276611,4050.603271 1868.504639,4051.397461 1859.991455,4052.871094 
	C1817.312500,4060.259766 1774.297241,4064.728516 1731.166260,4068.585205 
	C1674.052612,4073.692139 1616.863647,4076.436279 1559.547729,4076.903564 
	C1497.588623,4077.408936 1435.626465,4078.366211 1373.669678,4078.114014 
	C1313.705933,4077.869873 1253.743896,4076.519287 1193.788208,4075.301270 
	C1160.486572,4074.624512 1127.199707,4073.224854 1091.924561,4072.094238 
z"/>
<path fill="#FFC125" opacity="1.000000" stroke="none" 
	d="
M5927.702148,6024.300781 
	C5857.302246,5955.095703 5787.293457,5887.499023 5718.764648,5818.433594 
	C5648.326660,5747.443359 5581.152344,5673.411133 5520.382324,5593.814453 
	C5508.253418,5577.927734 5496.593750,5561.683594 5484.687988,5545.626465 
	C5478.098145,5536.738281 5475.020020,5526.895996 5475.354980,5515.742188 
	C5476.335449,5483.110840 5510.787109,5462.041504 5539.962402,5476.630859 
	C5545.875488,5479.588867 5551.276367,5483.657227 5556.678223,5487.540527 
	C5606.504883,5523.354004 5653.998535,5562.077148 5700.141602,5602.498047 
	C5786.962891,5678.553223 5867.951172,5760.647461 5948.154785,5843.469238 
	C6025.571289,5923.412598 6102.515625,6003.857910 6177.875488,6085.732910 
	C6238.330078,6151.414551 6296.114258,6219.554688 6355.036133,6286.645508 
	C6359.429688,6291.647949 6363.727051,6296.782715 6367.579590,6302.203613 
	C6380.290039,6320.090332 6378.877441,6343.853516 6364.437988,6359.260742 
	C6349.762695,6374.917480 6324.179688,6377.852051 6306.047363,6364.888184 
	C6294.154785,6356.384277 6283.087891,6346.666016 6272.059570,6337.024414 
	C6218.879883,6290.536133 6165.154297,6244.642578 6112.926758,6197.104004 
	C6050.837402,6140.587402 5990.079102,6082.608887 5927.702148,6024.300781 
z"/>
<path fill="#FFC125" opacity="1.000000" stroke="none" 
	d="
M3943.416992,6956.739258 
	C3941.928711,6904.212891 3940.757812,6853.589355 3939.027832,6802.985840 
	C3934.768311,6678.401855 3934.876953,6553.781738 3937.112305,6429.186035 
	C3938.091064,6374.620117 3940.688965,6320.001465 3947.190918,6265.702637 
	C3951.623047,6228.691406 3956.022705,6191.676758 3960.578613,6154.680664 
	C3961.390869,6148.083496 3962.650635,6141.515625 3964.127441,6135.030762 
	C3969.357666,6112.065918 3985.116943,6099.221680 4007.971680,6099.044922 
	C4031.199463,6098.865234 4047.663818,6110.968262 4052.254639,6134.043945 
	C4057.055176,6158.171387 4060.523682,6182.599121 4063.703369,6207.008789 
	C4080.010254,6332.197266 4081.586914,6458.077637 4080.791016,6584.050293 
	C4080.369873,6650.692871 4080.149414,6717.341309 4079.089844,6783.975098 
	C4078.221436,6838.601562 4076.669434,6893.226562 4074.643555,6947.823242 
	C4072.667480,7001.074707 4070.192383,7054.318359 4067.030029,7107.511719 
	C4064.263672,7154.039551 4060.294189,7200.496582 4056.737793,7246.975586 
	C4055.416992,7264.237305 4054.672852,7281.612793 4052.051025,7298.688477 
	C4047.664062,7327.262207 4018.162598,7343.196777 3991.441895,7332.170898 
	C3975.192871,7325.466797 3966.021973,7312.824707 3964.226318,7295.648926 
	C3961.249023,7267.174316 3958.599609,7238.643555 3956.784668,7210.074707 
	C3953.236816,7154.237793 3950.252197,7098.364746 3947.250000,7042.494629 
	C3945.748779,7014.560547 3944.721436,6986.600098 3943.416992,6956.739258 
z"/>
<path fill="#FFC125" opacity="1.000000" stroke="none" 
	d="
M3936.530762,1312.001709 
	C3938.102783,1238.064087 3939.107910,1166.109741 3941.319580,1094.192749 
	C3943.141602,1034.942871 3945.827881,975.705017 3949.174316,916.520874 
	C3952.369629,860.012024 3956.861816,803.575867 3960.906738,747.116516 
	C3961.667480,736.496521 3962.833740,725.897034 3964.114014,715.324646 
	C3966.871826,692.550964 3984.660156,676.212280 4007.019775,675.676147 
	C4030.154297,675.121521 4048.250488,689.746704 4052.211914,712.466980 
	C4053.468750,719.675964 4054.466309,726.965515 4054.992188,734.260681 
	C4058.200928,778.761902 4061.663330,823.250916 4064.229980,867.790771 
	C4067.525146,924.973816 4070.214600,982.193542 4072.851807,1039.411865 
	C4074.354248,1072.012695 4075.090576,1104.648071 4076.416748,1137.257812 
	C4081.020996,1250.472046 4080.400391,1363.752808 4080.753662,1477.018555 
	C4080.872070,1514.997314 4080.687500,1552.997192 4079.558594,1590.955200 
	C4077.895508,1646.870605 4075.203369,1702.759277 4068.559570,1758.356567 
	C4064.374512,1793.380615 4059.838135,1828.363281 4055.321289,1863.346558 
	C4054.641357,1868.613647 4053.457031,1873.851074 4052.073975,1878.985840 
	C4046.576416,1899.396362 4030.768555,1911.403198 4009.987061,1912.368042 
	C3989.886719,1913.301392 3971.188965,1900.797485 3964.971680,1879.882446 
	C3962.895264,1872.897339 3961.836182,1865.566040 3960.798340,1858.323242 
	C3953.149658,1804.933472 3946.883789,1751.426147 3942.995361,1697.577515 
	C3937.856689,1626.419556 3935.750244,1555.220703 3935.865479,1483.922607 
	C3935.957031,1427.281982 3936.270752,1370.641602 3936.530762,1312.001709 
z"/>
<path fill="#FFC125" opacity="1.000000" stroke="none" 
	d="
M6664.685547,2948.135742 
	C6657.371094,2954.016113 6651.338867,2959.331055 6644.557129,2963.392822 
	C6574.215332,3005.522461 6500.920410,3042.042236 6426.928223,3077.192383 
	C6355.962891,3110.904297 6284.213867,3142.846436 6211.139648,3171.765137 
	C6152.856934,3194.830566 6093.507324,3214.362549 6031.743164,3225.772217 
	C6017.383789,3228.424561 6002.825684,3231.180664 5988.305176,3231.507568 
	C5964.782227,3232.037109 5946.224121,3215.267822 5942.792480,3192.048096 
	C5940.259766,3174.915771 5945.921387,3160.260498 5959.199707,3149.356689 
	C5970.502441,3140.075195 5982.510742,3131.595947 5994.605957,3123.346924 
	C6044.864746,3089.070312 6098.742188,3061.392090 6154.682617,3037.840332 
	C6262.683594,2992.371338 6371.902832,2950.031982 6483.764648,2914.918701 
	C6525.649414,2901.771240 6568.052734,2890.272461 6610.264160,2878.177002 
	C6615.344727,2876.720947 6620.668945,2875.885010 6625.940430,2875.362305 
	C6662.879395,2871.698975 6684.995117,2910.877441 6670.682129,2938.394043 
	C6669.149902,2941.339355 6667.315430,2944.127686 6664.685547,2948.135742 
z"/>
<path fill="#FFC125" opacity="1.000000" stroke="none" 
	d="
M2074.868652,3190.601074 
	C2074.301514,3193.432617 2074.000000,3194.735352 2073.569824,3195.993896 
	C2064.483643,3222.566406 2046.331055,3234.955078 2018.751221,3231.080811 
	C1995.072510,3227.754883 1971.514160,3223.115723 1948.193848,3217.783447 
	C1886.348022,3203.641846 1827.255737,3181.244141 1768.923706,3156.659424 
	C1671.977173,3115.799561 1575.890747,3073.053711 1482.643799,3024.247070 
	C1445.496582,3004.803955 1409.150513,2983.828857 1372.477295,2963.482910 
	C1368.409668,2961.226318 1364.408569,2958.764648 1360.688965,2955.980713 
	C1344.387817,2943.779785 1338.090088,2923.479736 1344.884277,2904.315186 
	C1350.497559,2888.482178 1365.611084,2874.118652 1388.144653,2875.352783 
	C1394.730591,2875.713867 1401.364136,2876.872559 1407.777466,2878.464844 
	C1480.838501,2896.603027 1552.214355,2920.254639 1623.177002,2945.146240 
	C1711.751099,2976.215332 1799.457642,3009.566406 1885.100220,3048.099609 
	C1943.535156,3074.391113 1999.454468,3105.078613 2050.948486,3143.542480 
	C2066.474854,3155.139648 2075.558594,3169.357178 2074.868652,3190.601074 
z"/>
<path fill="#FFC125" opacity="1.000000" stroke="none" 
	d="
M2880.009766,6611.844727 
	C2921.010498,6455.441406 2976.125488,6305.659180 3038.094482,6158.288574 
	C3063.177979,6098.637207 3092.506348,6041.166016 3128.943115,5987.538574 
	C3136.043945,5977.087402 3143.576416,5966.865723 3151.652100,5957.154785 
	C3166.327881,5939.505859 3187.731201,5934.500977 3207.330322,5943.383301 
	C3226.921143,5952.262207 3237.551514,5971.745605 3234.470703,5994.109863 
	C3226.447754,6052.353027 3211.420410,6108.853027 3191.518799,6164.100586 
	C3169.394287,6225.518066 3142.996826,6285.174805 3116.555176,6344.796875 
	C3081.189453,6424.541016 3043.661621,6503.246582 3001.503174,6579.666992 
	C2989.927734,6600.649902 2977.948975,6621.411133 2966.036133,6642.206055 
	C2963.394531,6646.816895 2960.622314,6651.445312 2957.268555,6655.540039 
	C2944.985352,6670.536621 2924.425537,6675.772461 2906.692139,6668.763184 
	C2887.860107,6661.319824 2876.173828,6643.054688 2877.757080,6623.233398 
	C2878.020264,6619.940430 2879.051514,6616.708984 2880.009766,6611.844727 
z"/>
<path fill="#FFC125" opacity="1.000000" stroke="none" 
	d="
M2937.572754,1590.437256 
	C2916.895264,1529.014404 2897.760986,1468.773071 2882.183350,1407.458618 
	C2880.873047,1402.300903 2879.497314,1397.143311 2878.546143,1391.913940 
	C2875.074951,1372.830322 2883.978271,1354.333496 2901.036865,1344.808594 
	C2917.575684,1335.573975 2939.183838,1337.885132 2952.896729,1351.223755 
	C2958.052734,1356.239258 2962.202148,1362.504639 2965.948486,1368.719849 
	C2993.463867,1414.365967 3018.419189,1461.415405 3042.177002,1509.106079 
	C3095.038818,1615.218994 3144.474365,1722.864624 3186.580078,1833.755859 
	C3205.755615,1884.258179 3220.327148,1936.108276 3230.425781,1989.183960 
	C3232.290283,1998.982178 3233.679688,2008.894775 3234.765381,2018.811890 
	C3237.072266,2039.882568 3226.243408,2059.025146 3207.473389,2067.758301 
	C3188.670654,2076.507080 3167.205078,2072.843994 3153.348877,2055.304932 
	C3136.880615,2034.458984 3121.804199,2012.384399 3107.584229,1989.918335 
	C3077.228271,1941.958252 3053.472412,1890.561401 3031.883057,1838.189819 
	C2998.395752,1756.956787 2966.562012,1675.082031 2937.572754,1590.437256 
z"/>
<path fill="#FFC125" opacity="1.000000" stroke="none" 
	d="
M4995.947266,1812.103271 
	C4976.220215,1859.636597 4956.556152,1905.519653 4932.696289,1949.472534 
	C4915.204102,1981.694824 4896.280762,2013.016113 4874.510254,2042.557495 
	C4871.350586,2046.844360 4868.172363,2051.148926 4864.645020,2055.127930 
	C4850.214355,2071.406250 4829.611816,2076.212158 4810.304688,2067.995361 
	C4792.109863,2060.251953 4780.657715,2042.218628 4782.596680,2021.468384 
	C4784.140137,2004.946167 4787.136230,1988.515747 4790.265625,1972.193726 
	C4800.829590,1917.097534 4817.867188,1863.882935 4838.755371,1811.932983 
	C4890.196289,1683.993774 4946.715820,1558.375854 5012.335938,1436.997437 
	C5024.681152,1414.161011 5037.830078,1391.757690 5050.678711,1369.194824 
	C5052.982422,1365.149658 5055.369141,1361.102905 5058.168945,1357.397827 
	C5070.967285,1340.459717 5092.603516,1334.632202 5111.782715,1342.764038 
	C5131.504883,1351.126221 5142.940918,1372.022095 5138.329590,1393.291016 
	C5134.668457,1410.179810 5129.917969,1426.844971 5125.295410,1443.510864 
	C5104.472656,1518.593018 5079.515625,1592.342407 5052.469238,1665.367432 
	C5034.442871,1714.037964 5015.181152,1762.251221 4995.947266,1812.103271 
z"/>
<path fill="#FFC125" opacity="1.000000" stroke="none" 
	d="
M5038.736328,6621.424805 
	C5000.898438,6556.165039 4968.267578,6489.853516 4936.460449,6423.139648 
	C4902.077148,6351.023438 4869.685547,6278.015137 4840.463379,6203.630859 
	C4817.054688,6144.042969 4797.553711,6083.302246 4786.612793,6020.063477 
	C4784.912598,6010.237305 4783.320801,6000.354004 4782.460449,5990.429199 
	C4780.627930,5969.292480 4792.232910,5950.458984 4811.343750,5942.588867 
	C4830.029785,5934.894043 4852.424316,5939.890137 4865.224121,5957.127930 
	C4882.268066,5980.081055 4898.581055,6003.692383 4913.577637,6028.026367 
	C4944.395996,6078.034668 4968.396973,6131.508789 4990.548340,6185.806152 
	C5033.049316,6289.983887 5073.062988,6395.091797 5106.140137,6502.688477 
	C5117.670410,6540.195801 5127.148926,6578.329102 5138.059570,6616.033203 
	C5143.354004,6634.328613 5132.229492,6656.495605 5118.632812,6664.680664 
	C5097.232910,6677.562988 5071.194336,6672.687988 5056.904785,6651.821777 
	C5050.522949,6642.502930 5045.264648,6632.415527 5038.736328,6621.424805 
z"/>
<path fill="#FFC125" opacity="1.000000" stroke="none" 
	d="
M1707.352783,5035.263672 
	C1611.222412,5071.543457 1515.533936,5104.203125 1417.629028,5130.075195 
	C1409.279907,5132.282227 1400.890015,5134.898926 1392.361084,5135.761719 
	C1359.855957,5139.047852 1335.944458,5110.974121 1343.955933,5079.404297 
	C1347.069946,5067.132812 1354.548706,5058.113770 1365.387207,5051.790039 
	C1381.487671,5042.396484 1397.496460,5032.838379 1413.742310,5023.702637 
	C1474.129761,4989.742676 1536.300903,4959.252930 1598.875122,4929.611816 
	C1672.877319,4894.557129 1747.823730,4861.636719 1824.259644,4832.173340 
	C1882.161621,4809.854004 1941.402100,4792.343750 2002.649780,4781.995605 
	C2010.498657,4780.669434 2018.517822,4780.340332 2026.462158,4779.591797 
	C2044.300171,4777.911133 2064.694580,4789.581055 2071.787354,4809.068848 
	C2078.668945,4827.976562 2073.800781,4847.679199 2058.076660,4861.530762 
	C2053.091553,4865.922852 2047.646851,4869.812988 2042.264526,4873.729980 
	C2002.847778,4902.414062 1960.826660,4926.722656 1917.044556,4948.055664 
	C1855.337646,4978.123535 1791.238892,5002.484375 1727.414917,5027.499512 
	C1721.218872,5029.928711 1715.014893,5032.337402 1707.352783,5035.263672 
z"/>
<path fill="#FFC125" opacity="1.000000" stroke="none" 
	d="
M6514.003906,5105.803711 
	C6381.747559,5063.794434 6252.935059,5017.114258 6127.724121,4960.925293 
	C6072.955078,4936.348145 6020.435059,4907.602539 5972.050781,4871.781250 
	C5966.182129,4867.436523 5960.287109,4862.923828 5955.283203,4857.654785 
	C5941.555664,4843.200195 5938.173828,4826.000488 5946.001953,4807.854004 
	C5953.745117,4789.904297 5967.956543,4778.962402 5988.100586,4779.876465 
	C6003.967285,4780.596680 6019.832031,4783.200684 6035.504883,4786.034668 
	C6098.658203,4797.454590 6159.144043,4817.885742 6218.352051,4842.101074 
	C6315.705566,4881.917969 6411.939941,4924.332520 6505.677246,4972.096680 
	C6551.322754,4995.354980 6595.867188,5020.776855 6640.859863,5045.311523 
	C6646.108887,5048.173828 6651.282227,5051.298828 6656.065918,5054.871094 
	C6673.351074,5067.778320 6679.246094,5088.551270 6671.491211,5108.146973 
	C6664.214355,5126.532715 6646.069824,5137.553223 6625.255859,5135.894531 
	C6620.661133,5135.527832 6616.076660,5134.381836 6611.610840,5133.147461 
	C6579.556152,5124.286621 6547.533203,5115.311035 6514.003906,5105.803711 
z"/>
<path fill="#152C34" opacity="1.000000" stroke="none" 
	d="
M3997.458008,4845.299316 
	C3929.507568,4841.619141 3873.274902,4815.936035 3827.520752,4768.118652 
	C3817.013916,4757.138184 3808.196533,4744.385254 3799.596436,4731.769531 
	C3785.145264,4710.570801 3789.489014,4683.031738 3813.236816,4667.154297 
	C3839.923828,4649.312012 3868.122070,4657.446777 3881.984619,4678.265137 
	C3883.460693,4680.481934 3884.898682,4682.724121 3886.370361,4684.943848 
	C3907.395020,4716.647949 3937.444824,4735.173828 3974.019287,4742.906738 
	C4003.910645,4749.226562 4033.627930,4747.146484 4062.469727,4736.251465 
	C4090.779785,4725.557129 4113.426758,4707.802734 4129.967773,4682.384277 
	C4132.146973,4679.035645 4134.099609,4675.527344 4136.447754,4672.304199 
	C4149.451172,4654.453125 4168.311035,4648.650391 4189.390625,4655.896484 
	C4213.670898,4664.242676 4228.141113,4685.842773 4223.978027,4709.725586 
	C4222.541504,4717.966309 4218.599121,4726.195312 4214.155273,4733.416504 
	C4188.951660,4774.368652 4153.386230,4803.664062 4109.882812,4823.441895 
	C4074.774902,4839.403809 4037.802002,4846.658691 3997.458008,4845.299316 
z"/>
<path fill="#254854" opacity="1.000000" stroke="none" 
	d="
M2639.996582,3992.029541 
	C2661.583496,3968.497803 2681.880859,3945.610596 2702.321533,3922.921387 
	C2761.669189,3857.045166 2826.813721,3796.973877 2888.564697,3733.528076 
	C2914.179932,3713.383301 2935.400635,3688.389404 2961.095215,3668.254883 
	C2975.696777,3656.812988 2988.678223,3643.327637 3002.833252,3631.284424 
	C3017.980957,3618.396729 3033.138916,3605.412598 3049.250732,3593.800293 
	C3062.703613,3584.104004 3076.713135,3589.647217 3082.434082,3605.221191 
	C3084.382568,3610.525635 3084.448486,3615.594482 3081.097168,3620.426758 
	C3078.066650,3624.796631 3075.484619,3629.538818 3072.046631,3633.553223 
	C3061.253174,3646.157959 3049.994385,3658.364014 3039.204102,3670.971436 
	C3026.273438,3686.080322 3013.642334,3701.445801 3000.872559,3716.692383 
	C3000.017822,3717.712891 2999.102295,3718.683838 2998.188721,3719.652832 
	C2975.386230,3743.839600 2953.044678,3768.482910 2929.677979,3792.112061 
	C2877.673828,3844.700684 2825.485107,3897.116943 2772.684570,3948.903076 
	C2751.866699,3969.320557 2730.111328,3988.852295 2707.381836,4007.258545 
	C2693.465332,4018.527588 2680.727051,4031.239014 2667.047607,4042.816162 
	C2653.387695,4054.377197 2639.335938,4065.488281 2625.210693,4076.481201 
	C2618.844727,4081.435303 2611.196533,4081.744629 2604.600342,4077.553223 
	C2597.208740,4072.856445 2590.485352,4066.594971 2592.296631,4056.498291 
	C2593.069336,4052.191650 2595.197754,4047.693359 2597.926758,4044.245361 
	C2611.510254,4027.083984 2625.499268,4010.243652 2639.996582,3992.029541 
z"/>
<path fill="#254854" opacity="1.000000" stroke="none" 
	d="
M4851.120605,3735.001465 
	C4869.956543,3721.020020 4884.484375,3704.443359 4900.674316,3689.684570 
	C4921.745605,3670.475586 4943.311523,3651.793945 4965.042969,3633.330078 
	C4975.635254,3624.330078 4986.770020,3615.880859 4998.236328,3608.023926 
	C5008.778809,3600.800293 5017.539062,3602.634277 5026.386230,3612.374268 
	C5034.033203,3620.792969 5034.459473,3629.481689 5026.679199,3639.177734 
	C5013.820801,3655.203125 5000.542480,3670.892578 4987.388184,3686.679443 
	C4974.664062,3701.951172 4962.271973,3717.525635 4948.990723,3732.299561 
	C4937.427246,3745.162109 4924.193359,3756.536621 4912.793945,3769.530518 
	C4856.093262,3834.158203 4792.791016,3892.290039 4732.308594,3953.180420 
	C4708.972656,3976.673584 4684.236816,3998.884033 4658.552734,4019.961914 
	C4643.687988,4032.160645 4630.134277,4045.947021 4615.412598,4058.332275 
	C4601.729004,4069.843994 4587.540039,4080.803223 4573.090332,4091.343994 
	C4559.121094,4101.534668 4544.511719,4090.194092 4541.046875,4076.811279 
	C4540.302734,4073.935791 4541.170898,4070.054688 4542.603516,4067.322021 
	C4545.982910,4060.875000 4549.494141,4054.296631 4554.114746,4048.737549 
	C4571.069824,4028.338867 4589.419922,4009.037354 4605.495117,3987.986572 
	C4622.091309,3966.253418 4643.992188,3949.421875 4659.611328,3926.920654 
	C4662.606445,3922.605225 4666.914062,3919.189209 4670.680176,3915.422363 
	C4730.484375,3855.611084 4790.298828,3795.809814 4851.120605,3735.001465 
z"/>
<path fill="#244854" opacity="1.000000" stroke="none" 
	d="
M2698.809814,3766.981445 
	C2691.589600,3772.929443 2685.020020,3777.503418 2679.268555,3782.942383 
	C2657.519043,3803.512451 2633.749268,3821.406738 2608.931885,3838.074951 
	C2602.459961,3842.422119 2596.147705,3844.451660 2588.521729,3844.154053 
	C2573.405273,3843.564209 2563.991455,3830.677002 2569.899658,3816.822021 
	C2573.773193,3807.738281 2578.781738,3798.851074 2584.773193,3791.015625 
	C2599.251709,3772.081055 2614.130615,3753.481201 2629.838623,3735.457520 
	C2648.645508,3713.877441 2668.031738,3692.921875 2688.915527,3673.492188 
	C2718.487061,3645.980225 2747.928955,3618.192383 2781.422852,3595.278320 
	C2789.604492,3589.680908 2797.541260,3583.488770 2806.354980,3579.106689 
	C2820.047607,3572.298096 2835.639893,3579.980957 2838.715088,3594.825195 
	C2839.548828,3598.847900 2837.950439,3604.169922 2835.748535,3607.874023 
	C2829.656250,3618.124756 2823.325928,3628.374512 2815.873535,3637.647461 
	C2800.939697,3656.229492 2784.507812,3673.629639 2769.950928,3692.487793 
	C2749.103271,3719.496094 2723.113525,3741.419434 2698.809814,3766.981445 
z"/>
<path fill="#244854" opacity="1.000000" stroke="none" 
	d="
M4533.500977,3859.627441 
	C4528.841309,3856.983398 4525.130859,3855.054199 4522.704102,3852.078369 
	C4516.274902,3844.194336 4514.461426,3835.563477 4520.678223,3826.482178 
	C4530.042480,3812.802002 4538.738281,3798.605713 4548.867676,3785.518799 
	C4579.870117,3745.466064 4615.298828,3709.404541 4651.870117,3674.511230 
	C4665.269043,3661.727783 4680.471191,3650.854980 4694.302246,3638.496582 
	C4708.694336,3625.636719 4723.646484,3613.577148 4739.616211,3602.765137 
	C4744.021484,3599.782715 4748.278320,3596.474854 4752.988281,3594.069580 
	C4764.930176,3587.971191 4781.306152,3594.039062 4786.647949,3606.317383 
	C4789.307617,3612.429932 4787.464844,3618.208252 4784.169922,3623.394775 
	C4777.759277,3633.485352 4771.296387,3643.569092 4764.291016,3653.247070 
	C4758.466797,3661.294189 4751.253906,3668.363037 4745.690430,3676.566650 
	C4736.634766,3689.919678 4723.785645,3699.885010 4714.168945,3712.464111 
	C4698.687988,3732.713867 4680.475098,3750.242432 4662.055176,3767.432861 
	C4630.537109,3796.847168 4598.050781,3825.292480 4562.704590,3850.132080 
	C4554.705566,3855.753174 4545.874512,3861.258789 4533.500977,3859.627441 
z"/>
</svg>
